<svg width="16" height="16" viewBox="0 0 16 16" fill="none" xmlns="http://www.w3.org/2000/svg">
<path d="M9.03 8.67L6.94 9.06L7.33 6.97L12.53 1.78L14.22 3.47L9.03 8.67Z" stroke="#000000" stroke-linecap="round" stroke-linejoin="round"/>
<path d="M14.6388 1.34025C14.8638 1.56529 14.9902 1.87051 14.9902 2.18877C14.9902 2.50703 14.8638 2.81226 14.6388 3.0373L14.2145 3.46157L12.5316 1.77865L12.9559 1.35439C13.1784 1.13174 13.4796 1.00549 13.7944 1.00284C14.1092 1.00019 14.4125 1.12137 14.6388 1.34025V1.34025Z" stroke="#000000" stroke-linecap="round" stroke-linejoin="round"/>
<path d="M14 6.57999V14.07C14 14.3166 13.902 14.5532 13.7276 14.7276C13.5532 14.902 13.3167 15 13.07 15H8.27002" stroke="#000000" stroke-miterlimit="10"/>
<path d="M1 10.56V2.93C1 2.68335 1.09798 2.4468 1.27239 2.27239C1.4468 2.09798 1.68335 2 1.93 2H9.21" stroke="#000000" stroke-miterlimit="10"/>
<path d="M3.09997 14.79L1.40997 13.11" stroke="#00E9A8" stroke-miterlimit="10" stroke-linecap="square"/>
<path d="M5.72998 11.43L7.40998 13.11" stroke="#FF4775" stroke-miterlimit="10" stroke-linecap="square"/>
<path d="M7.40998 13.11L5.72998 14.79" stroke="#8061FE" stroke-miterlimit="10" stroke-linecap="square"/>
<path d="M1.40997 13.11L3.09997 11.43" stroke="#009AFF" stroke-miterlimit="10" stroke-linecap="square"/>
</svg>
