<svg xmlns="http://www.w3.org/2000/svg" xmlns:xlink="http://www.w3.org/1999/xlink" width="171" height="50" viewBox="0 0 171 50">
    <defs>
        <path id="aj28a0fd1a" d="M1.738 0.156L3.927 2.323 2.347 3.919 0.101 1.81z"/>
        <path id="fdje57jgic" d="M2.201 0.066L3.855 1.703 1.69 3.894 0.093 2.311z"/>
        <path id="6bg72xwlze" d="M2.398 0.044L3.994 1.624 1.886 3.869 0.232 2.232z"/>
        <path id="eaqjnja8wg" d="M1.736 0.023L3.981 2.132 2.344 3.786 0.156 1.619z"/>
    </defs>
    <g fill="none" fill-rule="evenodd">
        <g>
            <g>
                <path fill="#7A67F8" d="M34.758 38.865h-.012c-2.854-.005-5.404-1.983-8.594-5.173l-6.93-6.873 2.166-2.188 6.937 6.88c3.075 3.074 4.876 4.272 6.427 4.275h.005c1.567 0 3.467-1.262 6.558-4.353l3.541-3.587c1.784-1.784 2.57-3.34 2.408-4.762-.13-1.156-.894-2.397-2.401-3.904l-.033-.034c-1.628-1.732-3.619-3.663-5.699-4.732-.386-1.977-1.651-3.533-1.831-3.818 3.803.559 7.197 3.703 9.758 6.424 2.788 2.794 5.803 7.176-.018 12.996l-3.54 3.588c-3.251 3.25-5.844 5.261-8.742 5.261" transform="translate(-80 -25) translate(80 25)"/>
                <path fill="#F85977" d="M25.399 28.608l6.492-6.562c3.076-3.076 4.274-4.877 4.276-6.428.004-1.567-1.257-3.469-4.352-6.563l-3.587-3.54c-3.648-3.648-5.859-2.816-8.667-.008l-.033.033c-1.54 1.448-3.237 3.182-4.346 5.01-1.031.073-2.361.424-3.997 1.518.906-3.397 3.737-6.422 6.216-8.755 2.794-2.789 7.177-5.804 12.997.017l3.588 3.54c3.255 3.256 5.266 5.851 5.26 8.754-.005 2.854-1.982 5.404-5.172 8.594l-6.489 6.559-2.186-2.169z" transform="translate(-80 -25) translate(80 25)"/>
                <path fill="#159BFF" d="M12.522 38.707c-3.583-.761-6.776-3.735-9.214-6.325C2.035 31.106.321 29.13.042 26.663c-.274-2.414.8-4.795 3.283-7.278l3.542-3.588c3.25-3.25 5.843-5.261 8.74-5.261h.013c2.854.005 5.404 1.983 8.593 5.172l7.046 6.976-2.165 2.19-7.053-6.983c-3.076-3.076-4.876-4.273-6.427-4.276h-.006c-1.566 0-3.466 1.261-6.557 4.352L5.51 21.555c-1.784 1.784-2.57 3.34-2.409 4.762.131 1.156.894 2.396 2.402 3.904l.033.034c1.55 1.649 3.43 3.479 5.401 4.573.168 1.739 1.2 3.297 1.585 3.88" transform="translate(-80 -25) translate(80 25)"/>
                <path fill="#67E5AD" d="M26.32 49.827c-1.925 0-4.114-.886-6.557-3.33l-3.588-3.54c-7.008-7.008-7.024-10.411-.089-17.347l6.802-6.872 2.193 2.162-6.812 6.882c-3.076 3.076-4.273 4.877-4.276 6.427-.003 1.568 1.258 3.47 4.352 6.563l3.588 3.541c3.646 3.647 5.858 2.816 8.666.008l.034-.033c1.654-1.555 3.5-3.46 4.593-5.437 1.661-.14 2.9-.841 3.835-1.438-.8 3.537-3.738 6.69-6.302 9.102-1.62 1.618-3.777 3.312-6.439 3.312" transform="translate(-80 -25) translate(80 25)"/>
                <g transform="translate(-80 -25) translate(80 25) translate(21.154 18.577)">
                    <mask id="8jptpqrneb" fill="#fff">
                        <use xlink:href="#aj28a0fd1a"/>
                    </mask>
                    <path d="M0.101 1.81L1.738 0.156 3.927 2.323 2.347 3.919z" mask="url(#8jptpqrneb)"/>
                </g>
                <g transform="translate(-80 -25) translate(80 25) translate(27.404 20.981)">
                    <mask id="b2iljpfwbd" fill="#fff">
                        <use xlink:href="#fdje57jgic"/>
                    </mask>
                    <path d="M2.201 0.066L3.855 1.703 1.69 3.894 0.093 2.311z" mask="url(#b2iljpfwbd)"/>
                </g>
                <g transform="translate(-80 -25) translate(80 25) translate(18.99 24.587)">
                    <mask id="gj70tyfpnf" fill="#fff">
                        <use xlink:href="#6bg72xwlze"/>
                    </mask>
                    <path d="M1.886 3.869L0.232 2.232 2.398 0.044 3.994 1.624z" mask="url(#gj70tyfpnf)"/>
                </g>
                <g transform="translate(-80 -25) translate(80 25) translate(25.24 26.99)">
                    <mask id="z7vhvduckh" fill="#fff">
                        <use xlink:href="#eaqjnja8wg"/>
                    </mask>
                    <path d="M3.981 2.132L2.344 3.786 0.156 1.619 1.736 0.023z" mask="url(#z7vhvduckh)"/>
                </g>
                <path fill="#242424" d="M124.911 20.702c.023 1.513.043 2.82-.026 8.358l-.017 1.486h-5.982v-13.23c0-4.593-3.674-8.33-8.191-8.33-4.594 0-8.33 3.737-8.33 8.33v13.23h-5.86v-13.23c0-7.824 6.365-14.19 14.19-14.19 7.825 0 14.19 6.366 14.19 14.19 0 1.689.013 2.552.026 3.386zM84.635 4.087h5.86v13.23c0 7.824-6.366 14.19-14.191 14.19-7.825 0-14.19-6.366-14.19-14.19l-.004-.175c-.074-3.326-.039-8.127.004-11.57l.017-1.485h5.982v13.23c0 4.593 3.674 8.33 8.19 8.33 4.595 0 8.332-3.737 8.332-8.33V4.086zm60.498 21.56c-4.593 0-8.33-3.737-8.33-8.33 0-4.594 3.737-8.331 8.33-8.331 4.594 0 8.331 3.737 8.331 8.33 0 4.594-3.737 8.331-8.33 8.331zm0-22.521c-7.825 0-14.19 6.366-14.19 14.19 0 7.825 6.365 14.191 14.19 14.191 7.825 0 14.19-6.366 14.19-14.19 0-7.825-6.365-14.191-14.19-14.191zM63.979 42.409h.551c.515 0 .901-.102 1.157-.306.256-.203.384-.5.384-.89 0-.392-.107-.682-.322-.87-.214-.187-.55-.28-1.008-.28h-.762v2.346zm3.784-1.255c0 .85-.266 1.502-.797 1.952-.532.45-1.288.676-2.268.676h-.72v2.811h-1.675V38.69h2.524c.96 0 1.688.206 2.187.62.5.412.75 1.027.75 1.845zM74.792 46.593L74.792 38.689 76.468 38.689 76.468 45.209 79.674 45.209 79.674 46.593zM90.45 43.306c-.53-1.705-.829-2.669-.895-2.892-.067-.224-.115-.4-.143-.53-.12.461-.46 1.602-1.022 3.422h2.06zm.973 3.287l-.574-1.881h-2.881l-.573 1.881h-1.806l2.79-7.937h2.049l2.8 7.937h-1.805zM102.809 46.593L101.133 46.593 101.133 40.084 98.987 40.084 98.987 38.689 104.956 38.689 104.956 40.084 102.809 40.084zM113.357 46.593L111.709 46.593 111.709 38.689 116.239 38.689 116.239 40.062 113.357 40.062 113.357 42.101 116.039 42.101 116.039 43.468 113.357 43.468zM124.728 42.63c0 .884.167 1.548.503 1.995.335.447.836.671 1.503.671 1.337 0 2.005-.888 2.005-2.666 0-1.78-.664-2.67-1.994-2.67-.667 0-1.17.224-1.509.672-.339.45-.508 1.115-.508 1.998m5.769 0c0 1.309-.325 2.315-.974 3.017-.648.703-1.578 1.055-2.79 1.055-1.21 0-2.14-.352-2.79-1.055-.648-.702-.972-1.712-.972-3.027 0-1.316.325-2.32.976-3.015.65-.694 1.583-1.04 2.798-1.04 1.214 0 2.143.349 2.786 1.048.644.7.966 1.705.966 3.017M139.347 42.198h.541c.53 0 .92-.088 1.173-.265.253-.177.379-.454.379-.833 0-.375-.13-.641-.387-.8-.258-.159-.657-.238-1.197-.238h-.509v2.136zm0 1.362v3.033h-1.676V38.69h2.303c1.075 0 1.87.196 2.385.587.515.39.773.984.773 1.78 0 .466-.128.88-.384 1.242s-.618.646-1.087.851c1.19 1.778 1.965 2.925 2.325 3.444h-1.86l-1.887-3.033h-.892zM153.864 46.593l-1.903-6.201h-.049c.069 1.262.103 2.103.103 2.525v3.676h-1.498V38.69h2.282l1.87 6.045h.033l1.984-6.045h2.282v7.904h-1.562v-3.74c0-.178.002-.381.008-.612.005-.23.03-.843.073-1.838h-.05l-2.037 6.19h-1.536zM167.621 2.901h.204c.145 0 .255-.034.33-.103.074-.069.111-.167.111-.294 0-.142-.036-.24-.107-.296-.072-.056-.185-.084-.34-.084h-.198V2.9zm1.205-.41c0 .337-.15.566-.45.687l.697 1.17h-.621l-.566-1.02h-.265v1.02h-.557v-2.66h.772c.342 0 .592.066.751.2.16.134.239.335.239.604zm-2.751.525c0 .334.082.644.249.93.165.285.392.51.679.675.286.166.594.248.924.248.334 0 .644-.084.931-.252.287-.168.512-.394.676-.677.164-.284.246-.592.246-.924 0-.33-.083-.639-.249-.926-.166-.288-.393-.514-.68-.68-.288-.164-.595-.246-.924-.246-.33 0-.636.08-.92.244-.284.163-.51.388-.68.675-.168.286-.252.597-.252.933zm-.362 0c0-.392.098-.76.294-1.104.196-.344.466-.615.81-.813.344-.199.714-.298 1.11-.298.393 0 .761.098 1.105.295.344.196.615.466.813.81.198.343.298.714.298 1.11 0 .387-.096.75-.286 1.09-.19.34-.458.612-.801.816-.344.204-.72.306-1.129.306-.406 0-.781-.101-1.125-.305-.343-.203-.61-.474-.802-.814-.192-.34-.287-.704-.287-1.093z" transform="translate(-80 -25) translate(80 25)"/>
            </g>
        </g>
    </g>
</svg>
