<svg xmlns="http://www.w3.org/2000/svg" xmlns:xlink="http://www.w3.org/1999/xlink" version="1.1" id="Capa_1" x="0px" y="0px" width="100px" height="43.891px" viewBox="0 0 100 43.891" enable-background="new 0 0 100 43.891" xml:space="preserve">
<g>
	<path fill="#000000" d="M97.329,1.172l-2.674,0.772C94.497,1.99,78.327,6.57,49.906,6.57C21.49,6.57,5.509,1.993,5.351,1.945   L2.67,1.172v41.547l2.6-0.648c0.186-0.05,18.875-4.645,44.637-4.645c25.727,0,44.643,4.598,44.829,4.646l2.595,0.64L97.329,1.172z    M93.146,37.427c-3.429-0.718-10.062-1.954-18.948-2.899l-3.11-4.916h3.027l-6.051-10.381l-6.053,10.381h2.781l-2.507,3.964   c-1.672-0.089-3.386-0.164-5.147-0.218l-3.468-5.481h3.972l-7.94-13.627l-7.939,13.627h3.648l-3.482,5.504   c-1.683,0.059-3.328,0.136-4.925,0.225l-2.526-3.995h3.025l-6.047-10.381L25.404,29.61h2.779l-3.152,4.986   c-8.506,0.933-14.854,2.123-18.18,2.825V6.639c5.722,1.327,20.42,4.112,43.052,4.112c22.675,0,37.49-2.793,43.241-4.118v30.792   h0.002V37.427z"/>
	<circle fill="#000000" cx="81.233" cy="17.139" r="4.185"/>
</g>
</svg>