<?xml version="1.0" encoding="UTF-8" standalone="no"?>
<!-- Created with Inkscape (http://www.inkscape.org/) -->

<svg
   xmlns:dc="http://purl.org/dc/elements/1.1/"
   xmlns:cc="http://creativecommons.org/ns#"
   xmlns:rdf="http://www.w3.org/1999/02/22-rdf-syntax-ns#"
   xmlns:svg="http://www.w3.org/2000/svg"
   xmlns="http://www.w3.org/2000/svg"
   xmlns:sodipodi="http://sodipodi.sourceforge.net/DTD/sodipodi-0.dtd"
   xmlns:inkscape="http://www.inkscape.org/namespaces/inkscape"
   width="846.66669mm"
   height="737.3056mm"
   viewBox="0 0 846.66669 737.3056"
   version="1.1"
   id="svg386"
   inkscape:version="0.92.2 5c3e80d, 2017-08-06"
   sodipodi:docname="Road Crossing Sign in Grey Scale 01.svg">
  <defs
     id="defs380" />
  <sodipodi:namedview
     id="base"
     pagecolor="#ffffff"
     bordercolor="#666666"
     borderopacity="1.0"
     inkscape:pageopacity="0.0"
     inkscape:pageshadow="2"
     inkscape:zoom="0.0875"
     inkscape:cx="3914.2858"
     inkscape:cy="1159.0477"
     inkscape:document-units="mm"
     inkscape:current-layer="layer1"
     showgrid="false"
     fit-margin-top="0"
     fit-margin-left="0"
     fit-margin-right="0"
     fit-margin-bottom="0"
     inkscape:window-width="1440"
     inkscape:window-height="808"
     inkscape:window-x="0"
     inkscape:window-y="1"
     inkscape:window-maximized="1" />
  <metadata
     id="metadata383">
    <rdf:RDF>
      <cc:Work
         rdf:about="">
        <dc:format>image/svg+xml</dc:format>
        <dc:type
           rdf:resource="http://purl.org/dc/dcmitype/StillImage" />
        <dc:title></dc:title>
      </cc:Work>
    </rdf:RDF>
  </metadata>
  <g
     inkscape:label="Layer 1"
     inkscape:groupmode="layer"
     id="layer1"
     transform="translate(-279.70237,160.85519)">
    <g
       id="g472"
       transform="translate(477.76191,-33.261905)">
      <path
         style="fill:#fdfdfd;stroke-width:0.35277778"
         d="m -198.05954,241.05952 v -368.6528 H 225.2738 648.60715 v 368.6528 368.6528 H 225.2738 -198.05954 Z"
         id="path488"
         inkscape:connector-curvature="0" />
      <path
         style="fill:#afafaf;stroke-width:0.35277778"
         d="m -198.05954,241.05952 v -368.6528 H 225.2738 648.60715 v 368.6528 368.6528 H 225.2738 -198.05954 Z m 735.53971,301.00766 c -0.004,-0.5685 -305.78715,-574.456132 -306.07706,-574.439657 -0.3065,0.01742 -341.61372,573.933697 -341.61849,574.439657 -0.001,0.14552 145.730013,0.26458 323.84752,0.26458 178.1175,0 323.84912,-0.11906 323.84803,-0.26458 z m -238.9698,-27.00634 c -0.52356,-0.38284 -1.38945,-5.43825 -5.17141,-30.19161 -2.4984,-16.35248 -5.17359,-32.61586 -5.9448,-36.14088 -2.58963,-11.83616 -5.15965,-26.3972 -4.81682,-27.29061 0.0974,-0.25386 0.31185,-0.46154 0.47653,-0.46154 0.16467,0 4.94316,5.54016 10.61882,12.31148 9.78144,11.66965 10.39989,12.33178 11.86233,12.7 3.54418,0.89246 7.58797,0.24035 11.88614,-1.91674 2.83739,-1.42403 3.43496,-1.8523 9.64001,-6.9094 8.1951,-6.67897 9.80609,-9.10146 9.82511,-14.77423 0.0131,-3.905 -0.63684,-5.96029 -3.40251,-10.75972 -3.25314,-5.64544 -16.24997,-25.87054 -24.7076,-38.44901 -2.5908,-3.85311 -2.59137,-3.85251 3.19278,-3.57674 2.66788,0.12717 9.5862,0.36876 15.37405,0.53685 5.78789,0.1681 10.65703,0.44376 10.82037,0.61253 0.33909,0.35042 43.33981,141.86995 43.63984,143.6229 l 0.19625,1.14653 h -41.43011 c -33.49311,0 -41.55059,-0.0881 -42.05898,-0.45981 z m -374.472008,-0.92111 c -0.270806,-0.17148 -0.39872,-0.55583 -0.284251,-0.85414 0.473446,-1.23377 77.2828716,-143.68933 77.7810573,-144.25762 0.5116372,-0.5836 2.5636715,-0.6139 35.8476557,-0.52916 32.223355,0.082 35.31456,0.13977 35.415027,0.66153 0.121716,0.6321 -66.6925029,143.6974 -67.5704715,144.68461 -0.5168654,0.58117 -2.8977238,0.61705 -40.6228425,0.61197 -22.584784,-0.004 -40.28868,-0.14147 -40.566175,-0.31719 z m 245.507028,-0.0162 c -0.44979,-0.28445 0.10393,-7.16178 4.16758,-51.76475 4.39127,-48.19915 4.84156,-52.53532 7.15391,-68.89112 1.49892,-10.60231 2.63264,-17.55937 2.88798,-17.72168 0.65218,-0.41466 61.89758,-0.34414 62.15451,0.0716 0.11885,0.19234 1.62817,12.0589 3.35403,26.37015 l 3.13796,26.0205 1.4237,42.81703 c 0.78303,23.54936 1.33745,42.95655 1.23208,43.12708 -0.26254,0.42475 -84.83964,0.39628 -85.51175,-0.0289 z m 256.32344,-0.64047 c -0.27852,-0.53862 -14.34049,-32.62937 -31.24881,-71.31273 -22.01468,-50.3658 -30.63424,-70.44161 -30.3614,-70.71445 0.58413,-0.58413 64.23301,-0.31912 64.84254,0.26998 0.78136,0.75516 77.33654,140.37039 77.33654,141.04025 0,0.35084 -0.0397,0.64227 -0.0882,0.64756 -0.58741,0.0642 -69.44078,1.03279 -73.89788,1.03953 l -6.07635,0.009 z M 45.769965,512.9472 c -0.350986,-0.42291 4.526742,-13.83312 26.412398,-72.61497 14.763589,-39.65296 27.036929,-72.29496 27.274091,-72.53781 0.659926,-0.67579 19.738346,-0.79488 21.306936,-0.13304 0.63059,0.26607 1.14596,0.66294 1.14527,0.88195 -7.1e-4,0.219 -4.04643,14.90391 -8.99053,32.63311 l -8.98928,32.23489 2.72873,6.1963 2.72872,6.19629 6.77219,4.46656 6.77218,4.46655 10.02192,0.25291 10.02192,0.25291 2.22852,-0.90551 c 2.28928,-0.93024 3.518,-1.13912 3.518,-0.59807 0,0.16912 -0.88001,2.59006 -1.95556,5.37986 -1.14927,2.98101 -4.79682,14.96307 -8.84676,29.06127 -3.79017,13.19389 -7.07735,24.16966 -7.30486,24.39057 -0.30172,0.29298 -11.77953,0.46845 -42.413526,0.64833 -36.732137,0.21569 -42.053864,0.18158 -42.430359,-0.2721 z m 75.193445,-69.8342 -4.85892,-3.26319 -1.54708,-3.56179 -1.54708,-3.56178 11.8231,-42.39828 11.82309,-42.39825 1.51681,-1.66494 c 0.83425,-0.91574 9.95721,-10.31684 20.27325,-20.89136 16.38113,-16.79158 28.6367,-28.94633 43.57381,-43.21528 2.6997,-2.57894 4.30773,-4.41304 4.79407,-5.46805 2.11843,-4.59543 2.63603,-12.64187 1.73898,-27.0352 -0.31778,-5.09891 -0.48066,-10.77542 -0.36442,-12.7 0.32488,-5.37866 -1.00277,-10.84312 -3.52294,-14.50016 -2.12288,-3.08047 -5.99197,-4.34604 -9.79932,-3.20533 -2.05987,0.61716 -4.34682,2.84906 -6.18532,6.03652 -5.15959,8.94521 -14.78926,17.50561 -28.67153,25.48781 -9.14203,5.2566 -15.42396,7.87862 -22.09306,9.22143 -4.48912,0.90389 -17.04012,0.90872 -21.2986,0.008 -4.48209,-0.9478 -8.59543,-2.2619 -9.63173,-3.07703 -0.50633,-0.39829 -1.43143,-1.76181 -2.05578,-3.03004 -2.01159,-4.08612 -1.72893,-7.4537 0.92962,-11.07536 1.64802,-2.24504 3.07087,-2.76278 11.55832,-4.2056 8.40116,-1.42815 14.13285,-2.82822 18.83987,-4.60199 5.76408,-2.17212 7.98146,-3.56376 11.75996,-7.3806 5.45269,-5.50803 8.7281,-11.06869 16.22858,-27.55112 5.10142,-11.21052 6.45471,-13.79403 10.29709,-19.65763 12.46632,-19.02399 26.25521,-32.611 38.99595,-38.42498 4.14934,-1.89348 6.78452,-2.42719 18.78923,-3.80544 11.50744,-1.32116 17.8236,-1.70289 25.57639,-1.54574 6.65434,0.13488 7.19335,0.19717 9.47893,1.09546 10.24999,4.02853 21.96535,15.90971 35.3767,35.87737 4.89422,7.28684 11.39553,18.10183 15.59831,25.94787 l 3.22245,6.01592 v 33.21265 33.21265 l -1.21902,0.92978 c -1.81727,1.3861 -5.55555,2.53778 -9.70379,2.98948 -8.1394,0.88628 -11.7922,-0.61659 -14.20202,-5.84306 l -0.80434,-1.74445 -0.17639,-27.34028 -0.17638,-27.34028 -10.19444,-13.58195 c -11.8825,-15.83097 -10.39763,-13.92137 -10.63805,-13.68094 -0.10724,0.10723 1.30401,36.46263 3.13613,80.78976 l 3.3311,80.59477 9.85721,14.78364 c 18.57428,27.85731 32.48862,49.34469 35.94594,55.50991 2.2981,4.09815 2.51933,5.4599 1.22672,7.55142 -1.0553,1.70748 -12.28023,10.90461 -14.66296,12.01406 -0.97565,0.45427 -2.33603,0.92636 -3.0231,1.04909 -1.11742,0.19963 -1.3825,0.0834 -2.51273,-1.1019 -1.53098,-1.60553 -48.45643,-57.60904 -49.73535,-59.35702 -0.49689,-0.6791 -6.65978,-15.64626 -13.69529,-33.26031 -11.14291,-27.89725 -12.87417,-31.99953 -13.42997,-31.82314 -0.35091,0.11141 -3.02828,1.29819 -5.9497,2.63733 l -5.31171,2.43481 -21.96772,20.31894 c -12.08229,11.1754 -22.22941,20.66953 -22.54917,21.09802 -0.31979,0.42848 -5.62059,19.19407 -11.77964,41.7013 -6.64012,24.26546 -11.42922,41.15163 -11.76579,41.48585 -0.31218,0.30999 -2.58582,1.46093 -5.05254,2.55764 l -4.48494,1.99401 h -8.11094 -8.11093 l -4.85892,-3.2632 z m 91.43401,-310.72919 c -7.97783,-1.07658 -16.14241,-4.91555 -21.93661,-10.31458 -9.43702,-8.79336 -13.32297,-21.76223 -10.15972,-33.906737 2.48938,-9.557386 9.95229,-18.471209 19.48907,-23.278114 4.79845,-2.418602 12.14448,-4.095256 17.89892,-4.085248 18.32575,0.03186 34.13016,12.279356 37.77259,29.271491 0.64608,3.013989 0.64184,10.241188 -0.008,13.294298 -3.01255,14.15818 -14.27773,25.09921 -29.20954,28.36907 -3.65781,0.80101 -10.38656,1.11679 -13.84692,0.64982 z"
         id="path486"
         inkscape:connector-curvature="0" />
      <path
         style="fill:#a1a1a1;stroke-width:0.35277778"
         d="M -198.05954,241.05952 V -127.2405 H 225.2738 648.60715 V 241.05952 609.35954 H 225.2738 -198.05954 Z m 735.53971,301.00766 c -0.004,-0.5685 -305.78715,-574.456132 -306.07706,-574.439657 -0.3065,0.01742 -341.61372,573.933697 -341.61849,574.439657 -0.001,0.14552 145.730013,0.26458 323.84752,0.26458 178.1175,0 323.84912,-0.11906 323.84803,-0.26458 z m -238.9698,-27.00634 c -0.52356,-0.38284 -1.38945,-5.43825 -5.17141,-30.19161 -2.4984,-16.35248 -5.17359,-32.61586 -5.9448,-36.14088 -2.58963,-11.83616 -5.15965,-26.3972 -4.81682,-27.29061 0.0974,-0.25386 0.31185,-0.46154 0.47653,-0.46154 0.16467,0 4.94316,5.54016 10.61882,12.31148 9.78144,11.66965 10.39989,12.33178 11.86233,12.7 3.54418,0.89246 7.58797,0.24035 11.88614,-1.91674 2.83739,-1.42403 3.43496,-1.8523 9.64001,-6.9094 8.1951,-6.67897 9.80609,-9.10146 9.82511,-14.77423 0.0131,-3.905 -0.63684,-5.96029 -3.40251,-10.75972 -3.25314,-5.64544 -16.24997,-25.87054 -24.7076,-38.44901 -2.5908,-3.85311 -2.59137,-3.85251 3.19278,-3.57674 2.66788,0.12717 9.5862,0.36876 15.37405,0.53685 5.78789,0.1681 10.65703,0.44376 10.82037,0.61253 0.33909,0.35042 43.33981,141.86995 43.63984,143.6229 l 0.19625,1.14653 h -41.43011 c -33.49311,0 -41.55059,-0.0881 -42.05898,-0.45981 z m -374.472008,-0.92111 c -0.270806,-0.17148 -0.39872,-0.55583 -0.284251,-0.85414 0.473446,-1.23377 77.2828716,-143.68933 77.7810573,-144.25762 0.5116372,-0.5836 2.5636715,-0.6139 35.8476557,-0.52916 32.223355,0.082 35.31456,0.13977 35.415027,0.66153 0.121716,0.6321 -66.6925029,143.6974 -67.5704715,144.68461 -0.5168654,0.58117 -2.8977238,0.61705 -40.6228425,0.61197 -22.584784,-0.004 -40.28868,-0.14147 -40.566175,-0.31719 z m 245.507028,-0.0162 c -0.44979,-0.28445 0.10393,-7.16178 4.16758,-51.76475 4.39127,-48.19915 4.84156,-52.53532 7.15391,-68.89112 1.49892,-10.60231 2.63264,-17.55937 2.88798,-17.72168 0.65218,-0.41466 61.89758,-0.34414 62.15451,0.0716 0.11885,0.19234 1.62817,12.0589 3.35403,26.37015 l 3.13796,26.0205 1.4237,42.81703 c 0.78303,23.54936 1.33745,42.95655 1.23208,43.12708 -0.26254,0.42475 -84.83964,0.39628 -85.51175,-0.0289 z m 256.32344,-0.64047 c -0.27852,-0.53862 -14.34049,-32.62937 -31.24881,-71.31273 -22.01468,-50.3658 -30.63424,-70.44161 -30.3614,-70.71445 0.58413,-0.58413 64.23301,-0.31912 64.84254,0.26998 0.78136,0.75516 77.33654,140.37039 77.33654,141.04025 0,0.35084 -0.0397,0.64227 -0.0882,0.64756 -0.58741,0.0642 -69.44078,1.03279 -73.89788,1.03953 l -6.07635,0.009 z M 45.769965,512.9472 c -0.350986,-0.42291 4.526742,-13.83312 26.412398,-72.61497 14.763589,-39.65296 27.036929,-72.29496 27.274091,-72.53781 0.659926,-0.67579 19.738346,-0.79488 21.306936,-0.13304 0.63059,0.26607 1.14596,0.66294 1.14527,0.88195 -7.1e-4,0.219 -4.04643,14.90391 -8.99053,32.63311 l -8.98928,32.23489 2.72873,6.1963 2.72872,6.19629 6.77219,4.46656 6.77218,4.46655 10.02192,0.25291 10.02192,0.25291 2.22852,-0.90551 c 2.28928,-0.93024 3.518,-1.13912 3.518,-0.59807 0,0.16912 -0.88001,2.59006 -1.95556,5.37986 -1.14927,2.98101 -4.79682,14.96307 -8.84676,29.06127 -3.79017,13.19389 -7.07735,24.16966 -7.30486,24.39057 -0.30172,0.29298 -11.77953,0.46845 -42.413526,0.64833 -36.732137,0.21569 -42.053864,0.18158 -42.430359,-0.2721 z m 75.193445,-69.8342 -4.85892,-3.26319 -1.54708,-3.56179 -1.54708,-3.56178 11.8231,-42.39828 11.82309,-42.39825 1.51681,-1.66494 c 0.83425,-0.91574 9.95721,-10.31684 20.27325,-20.89136 16.38113,-16.79158 28.6367,-28.94633 43.57381,-43.21528 2.6997,-2.57894 4.30773,-4.41304 4.79407,-5.46805 2.11843,-4.59543 2.63603,-12.64187 1.73898,-27.0352 -0.31778,-5.09891 -0.48066,-10.77542 -0.36442,-12.7 0.32488,-5.37866 -1.00277,-10.84312 -3.52294,-14.50016 -2.12288,-3.08047 -5.99197,-4.34604 -9.79932,-3.20533 -2.05987,0.61716 -4.34682,2.84906 -6.18532,6.03652 -5.15959,8.94521 -14.78926,17.50561 -28.67153,25.48781 -9.14203,5.2566 -15.42396,7.87862 -22.09306,9.22143 -4.48912,0.90389 -17.04012,0.90872 -21.2986,0.008 -4.48209,-0.9478 -8.59543,-2.2619 -9.63173,-3.07703 -0.50633,-0.39829 -1.43143,-1.76181 -2.05578,-3.03004 -2.01159,-4.08612 -1.72893,-7.4537 0.92962,-11.07536 1.64802,-2.24504 3.07087,-2.76278 11.55832,-4.2056 8.40116,-1.42815 14.13285,-2.82822 18.83987,-4.60199 5.76408,-2.17212 7.98146,-3.56376 11.75996,-7.3806 5.45269,-5.50803 8.7281,-11.06869 16.22858,-27.55112 5.10142,-11.21052 6.45471,-13.79403 10.29709,-19.65763 12.46632,-19.02399 26.25521,-32.611 38.99595,-38.42498 4.14934,-1.89348 6.78452,-2.42719 18.78923,-3.80544 11.50744,-1.32116 17.8236,-1.70289 25.57639,-1.54574 6.65434,0.13488 7.19335,0.19717 9.47893,1.09546 10.24999,4.02853 21.96535,15.90971 35.3767,35.87737 4.89422,7.28684 11.39553,18.10183 15.59831,25.94787 l 3.22245,6.01592 v 33.21265 33.21265 l -1.21902,0.92978 c -1.81727,1.3861 -5.55555,2.53778 -9.70379,2.98948 -8.1394,0.88628 -11.7922,-0.61659 -14.20202,-5.84306 l -0.80434,-1.74445 -0.17639,-27.34028 -0.17638,-27.34028 -10.19444,-13.58195 c -11.8825,-15.83097 -10.39763,-13.92137 -10.63805,-13.68094 -0.10724,0.10723 1.30401,36.46263 3.13613,80.78976 l 3.3311,80.59477 9.85721,14.78364 c 18.57428,27.85731 32.48862,49.34469 35.94594,55.50991 2.2981,4.09815 2.51933,5.4599 1.22672,7.55142 -1.0553,1.70748 -12.28023,10.90461 -14.66296,12.01406 -0.97565,0.45427 -2.33603,0.92636 -3.0231,1.04909 -1.11742,0.19963 -1.3825,0.0834 -2.51273,-1.1019 -1.53098,-1.60553 -48.45643,-57.60904 -49.73535,-59.35702 -0.49689,-0.6791 -6.65978,-15.64626 -13.69529,-33.26031 -11.14291,-27.89725 -12.87417,-31.99953 -13.42997,-31.82314 -0.35091,0.11141 -3.02828,1.29819 -5.9497,2.63733 l -5.31171,2.43481 -21.96772,20.31894 c -12.08229,11.1754 -22.22941,20.66953 -22.54917,21.09802 -0.31979,0.42848 -5.62059,19.19407 -11.77964,41.7013 -6.64012,24.26546 -11.42922,41.15163 -11.76579,41.48585 -0.31218,0.30999 -2.58582,1.46093 -5.05254,2.55764 l -4.48494,1.99401 h -8.11094 -8.11093 l -4.85892,-3.2632 z m 91.43401,-310.72919 c -7.97783,-1.07658 -16.14241,-4.91555 -21.93661,-10.31458 -9.43702,-8.79336 -13.32297,-21.76223 -10.15972,-33.906737 2.48938,-9.557386 9.95229,-18.471209 19.48907,-23.278114 4.79845,-2.418602 12.14448,-4.095256 17.89892,-4.085248 18.32575,0.03186 34.13016,12.279356 37.77259,29.271491 0.64608,3.013989 0.64184,10.241188 -0.008,13.294298 -3.01255,14.15818 -14.27773,25.09921 -29.20954,28.36907 -3.65781,0.80101 -10.38656,1.11679 -13.84692,0.64982 z"
         id="path484"
         inkscape:connector-curvature="0" />
      <path
         style="fill:#5d5d5d;stroke-width:0.35277778"
         d="M -198.05954,241.05952 V -127.2405 H 225.2738 648.60715 V 241.05952 609.35954 H 225.2738 -198.05954 Z m 735.83082,300.92507 c -0.21325,-1.3239 -305.96276,-575.052604 -306.4025,-574.953883 -0.51523,0.11568 -341.93943,574.383023 -341.93943,575.133973 0,0.45759 38.846064,0.51986 324.22734,0.51986 323.1646,0 324.22695,-0.004 324.11459,-0.69995 z m -233.17292,-27.0806 -6.22402,-0.10488 -0.2079,-1.13852 c -0.11433,-0.62621 -2.19385,-14.17338 -4.62117,-30.10482 -2.42729,-15.93145 -4.8822,-31.03168 -5.45529,-33.55608 -1.34069,-5.90543 -3.67665,-17.90122 -4.42746,-22.73607 -1.06952,-6.8869 -1.60313,-7.22511 9.52101,6.03461 5.43278,6.47577 10.30746,12.09333 10.83261,12.4835 0.70615,0.52462 1.68504,0.75163 3.75831,0.87168 5.71839,0.33101 9.93652,-1.51084 17.77641,-7.7621 7.10653,-5.66656 9.18195,-7.77324 10.59338,-10.75316 1.05421,-2.22567 1.13443,-2.65493 1.10801,-5.92723 -0.0219,-2.70418 -0.20962,-4.02195 -0.80412,-5.64444 -1.2585,-3.43461 -5.57739,-10.4369 -19.90919,-32.27917 -4.64683,-7.08202 -8.62179,-13.14697 -8.83321,-13.4777 -0.21142,-0.33073 -0.26649,-0.71921 -0.12241,-0.86329 0.14407,-0.14407 4.8212,0.0113 10.39357,0.34499 5.57241,0.33383 12.30507,0.60325 14.96152,0.5987 2.65642,-0.005 4.9209,0.13902 5.03216,0.31908 0.50959,0.82451 43.56245,143.35511 43.38747,143.63825 -0.1784,0.28867 -60.3522,0.33305 -76.75968,0.0566 z m -133.74053,-1.05145 c -0.83326,-0.0871 -1.32292,-0.32128 -1.32292,-0.63253 0,-0.27182 2.14479,-23.87629 4.76617,-52.45443 4.35893,-47.52086 4.96119,-53.33104 7.0491,-68.00497 1.25561,-8.82463 2.36026,-16.2462 2.4547,-16.49237 0.13695,-0.35687 6.39107,-0.4476 30.8537,-0.4476 19.17051,0 30.76025,0.12675 30.89074,0.33785 0.11483,0.18581 1.56175,11.338 3.21532,24.78264 l 3.00655,24.44479 1.52778,44.09722 c 0.84028,24.25348 1.45714,44.21629 1.37078,44.36181 -0.15642,0.26356 -81.2946,0.2709 -83.81192,0.008 z m 255.58807,-0.18398 c -0.49297,-0.62032 -61.54032,-140.31832 -61.74197,-141.2875 l -0.16517,-0.79375 31.87933,0.005 c 17.53362,0.004 32.05618,0.12202 32.27236,0.26458 0.4687,0.3091 77.39447,140.27444 77.39447,140.81814 0,0.21717 -0.78179,0.37899 -1.85208,0.38343 -1.01865,0.004 -17.25083,0.23866 -36.07153,0.52106 -42.55265,0.63845 -41.28064,0.63577 -41.71541,0.0887 z m -502.091304,-0.35277 c 1.34e-4,-0.24254 17.438264,-32.82598 38.751401,-72.40765 l 38.7511551,-71.96667 35.0479899,-0.0899 c 21.541945,-0.0553 35.175833,0.0379 35.379739,0.24183 0.20714,0.20715 -11.962815,26.60911 -32.401328,70.2927 -18.003189,38.47852 -33.2193978,70.95312 -33.8137966,72.1658 l -1.0807242,2.20486 H -35.328308 c -32.018817,0 -40.31729,-0.0908 -40.317096,-0.44097 z m 121.867076,-0.57598 c -0.08744,-0.0874 -0.158983,-0.37162 -0.158983,-0.63155 0,-0.67394 52.879845,-142.64986 53.487632,-143.60776 0.502939,-0.79266 0.517419,-0.79375 10.510589,-0.79375 9.01796,0 10.07888,0.061 10.73481,0.61736 l 0.72787,0.61736 -9.01403,32.24104 -9.01403,32.24103 2.68839,6.03536 c 1.47862,3.31942 2.80404,6.21524 2.94539,6.43509 0.14134,0.21988 3.35262,2.44238 7.13616,4.93889 l 6.87917,4.53915 10.15527,0.10813 10.15528,0.10816 1.96999,-0.90191 c 2.26003,-1.03466 2.59029,-1.08776 2.59029,-0.41642 0,0.26702 -0.94503,3.00546 -2.10007,6.08542 -1.21741,3.24629 -4.86645,15.31182 -8.68198,28.7069 -3.62004,12.70882 -6.68345,23.21038 -6.80756,23.33682 -0.2504,0.25506 -83.951172,0.59369 -84.204188,0.34068 z m 75.084378,-69.80485 -4.6608,-3.08515 -1.60453,-3.57773 -1.60453,-3.5777 11.48502,-41.22508 c 6.31677,-22.67377 11.66181,-41.78068 11.87788,-42.45977 0.2771,-0.87091 3.10481,-4.04076 9.59698,-10.75814 15.43714,-15.97268 40.78433,-41.38793 50.59229,-50.72811 5.66657,-5.39633 9.55912,-9.37909 9.98771,-10.21919 2.26677,-4.44324 2.85972,-13.0284 1.99168,-28.83624 -0.27171,-4.9477 -0.43262,-10.39664 -0.35758,-12.10874 0.33997,-7.75811 -3.01117,-15.49469 -7.52927,-17.38248 -1.97305,-0.82439 -5.36797,-0.63775 -7.47211,0.41078 -2.17361,1.08316 -3.41454,2.43032 -5.40618,5.86904 -6.24194,10.77726 -19.18018,21.08835 -37.74551,30.08122 -7.96191,3.85667 -15.84235,5.40406 -25.54858,5.01675 -7.78072,-0.31048 -15.46997,-2.02974 -17.78323,-3.97623 -1.43303,-1.20583 -2.89316,-4.42644 -3.11476,-6.87028 -0.34028,-3.75267 2.36398,-8.02357 5.67781,-8.96715 0.99804,-0.28416 4.27525,-0.92576 7.28268,-1.42575 13.60878,-2.26251 21.87288,-4.89381 27.51667,-8.76134 6.65305,-4.55916 11.85249,-12.63019 20.31341,-31.53239 3.90722,-8.72897 6.56614,-13.81639 9.82397,-18.79672 12.21585,-18.67464 25.20174,-31.73939 37.77235,-38.00168 4.80606,-2.39423 7.12572,-2.92476 18.87361,-4.31654 15.10831,-1.7899 29.45476,-2.31853 33.70435,-1.24193 14.07926,3.56686 32.74399,25.40099 52.77164,61.73261 l 3.30595,5.99722 0.0988,32.80834 c 0.0544,18.04458 0.0141,33.15585 -0.0895,33.58063 -0.25421,1.04257 -3.85629,2.78356 -7.19335,3.47677 -3.52912,0.73311 -9.97434,0.72827 -12.04098,-0.009 -2.11349,-0.754 -3.60906,-2.27302 -4.8217,-4.89723 l -1.00044,-2.16503 -0.0987,-27.14495 -0.0988,-27.14495 -10.65759,-14.21825 c -5.86165,-7.81989 -10.77814,-14.21811 -10.92553,-14.21811 -0.44524,0 -0.34904,2.66517 3.03167,84.01192 l 3.26421,78.54386 13.07603,19.70476 c 29.71454,44.77794 34.6879,52.77199 34.6879,55.75642 0,1.89513 -1.27392,3.31527 -7.69902,8.58259 -5.52817,4.53207 -8.56076,6.34214 -10.62549,6.34214 -1.25935,0 -1.57188,-0.34978 -20.84575,-23.32916 -10.76198,-12.83103 -22.21593,-26.49778 -25.4532,-30.37061 l -5.88596,-7.04148 -12.77267,-31.98284 c -7.02493,-17.59059 -12.97855,-32.2054 -13.23019,-32.47739 -0.3883,-0.4197 -1.34186,-0.0993 -6.30029,2.11667 l -5.84278,2.61119 -20.90219,19.33483 c -11.49621,10.63414 -21.7128,20.15914 -22.70358,21.16667 l -1.80139,1.83183 -11.2026,40.92223 c -6.72281,24.55806 -11.43369,41.15636 -11.78054,41.50773 -0.31788,0.32205 -2.54584,1.47299 -4.95102,2.55764 l -4.37305,1.97213 h -7.97417 -7.97417 l -4.66081,-3.08518 z m 92.1497,-310.88657 c -14.63022,-1.50124 -27.44668,-11.25142 -31.99307,-24.33888 -1.68994,-4.86467 -2.26084,-11.895972 -1.36577,-16.820616 1.99245,-10.962458 9.42336,-20.480621 19.95328,-25.557877 21.92098,-10.569734 48.03518,0.277523 54.52065,22.64667 1.1418,3.938252 1.33304,11.068431 0.41574,15.502033 -2.3944,11.57333 -11.25068,21.67648 -22.83361,26.04845 -5.76724,2.17685 -12.8023,3.12511 -18.69722,2.52022 z"
         id="path482"
         inkscape:connector-curvature="0" />
      <path
         style="fill:#5a5a5a;stroke-width:0.35277778"
         d="M -198.05954,241.05952 V -127.2405 H 225.2738 648.60715 V 241.05952 609.35954 H 225.2738 -198.05954 Z m 736.44102,301.53051 c 0.18486,-0.48175 -305.59488,-574.98004 -306.53835,-575.923495 -0.35416,-0.354164 -0.68326,-0.440299 -0.87655,-0.229411 -1.04853,1.143945 -342.23599,575.756276 -342.09103,576.134066 0.26002,0.67755 649.24594,0.69642 649.50593,0.0187 z M 313.73284,514.55061 c -8.29469,-0.0527 -15.08126,-0.15663 -15.08126,-0.23089 0,-1.4388 -9.45599,-61.36277 -10.19929,-64.63432 -2.2358,-9.84081 -5.24027,-26.44003 -4.85532,-26.82498 0.0926,-0.0926 4.63561,5.15489 10.09548,11.6611 11.11401,13.24399 10.27401,12.5547 15.30388,12.55826 5.23082,0.004 9.50282,-1.97679 16.62547,-7.7077 9.71303,-7.81512 11.753,-10.52421 12.09756,-16.06529 0.39885,-6.4146 -0.75413,-8.59896 -20.13042,-38.13754 -4.83647,-7.37306 -8.96648,-13.67614 -9.17783,-14.00687 -0.21131,-0.33072 -0.27753,-0.70802 -0.14714,-0.83841 0.13042,-0.13038 2.90251,-0.0378 6.16027,0.20581 3.25773,0.2436 9.73318,0.51584 14.38985,0.60498 4.65666,0.0892 8.59155,0.28092 8.74416,0.42609 0.38534,0.36653 43.56537,142.66274 43.39047,142.98966 -0.12933,0.24176 -29.19695,0.24179 -67.21588,10e-5 z m -129.8471,-1.05833 -14.04779,-0.0965 0.21273,-1.84799 c 0.11701,-1.01642 2.26977,-24.39053 4.78387,-51.94247 4.16582,-45.6521 4.77468,-51.53354 6.86619,-66.32223 1.26224,-8.92528 2.37007,-16.42622 2.46186,-16.66875 0.13169,-0.34805 6.55683,-0.44097 30.49598,-0.44097 17.66545,0 30.41135,0.13299 30.526,0.31852 0.10827,0.17522 1.55893,11.48616 3.22365,25.13542 l 3.0268,24.81689 1.49394,43.39167 c 0.82166,23.86542 1.43479,43.51073 1.36247,43.65626 -0.11984,0.24108 -35.28918,0.24115 -70.4057,10e-5 z m 242.54468,-0.5975 c -1.66053,-3.64448 -61.45661,-140.59507 -61.45661,-140.75372 0,-0.31796 62.9194,-0.22281 63.42161,0.0959 0.79636,0.50535 77.30914,140.14278 76.86926,140.28798 -0.22796,0.0752 -13.11448,0.30184 -28.6367,0.50352 -15.52222,0.20168 -33.07006,0.46619 -38.99518,0.58776 l -10.77295,0.22102 z m -501.699957,0.24613 c 0.01284,-0.14636 17.435647,-32.57172 38.717362,-72.05638 l 38.6940294,-71.79028 34.7292336,-0.0899 c 19.10108,-0.0495 34.839897,0.03 34.975152,0.17639 0.135252,0.14647 -14.876815,32.57193 -33.360156,72.05659 l -33.6060672,71.79028 -40.0864438,0.0897 c -22.047542,0.0493 -40.075944,-0.03 -40.06311,-0.17639 z m 121.687085,-1.0584 c 0.0011,-0.14633 12.03523,-32.57166 26.742416,-72.05631 l 26.740334,-71.79028 9.782812,-0.0938 c 9.71759,-0.0932 11.16847,0.0496 11.16847,1.09929 0,0.24832 -3.96875,14.68353 -8.81944,32.07827 -4.8507,17.39469 -8.81541,31.83064 -8.81047,32.07984 0.005,0.24917 1.24369,3.2312 2.75279,6.62669 l 2.7438,6.17361 3.50902,2.40295 c 1.92996,1.32161 5.24265,3.50442 7.36152,4.85069 l 3.8525,2.44775 h 10.12557 c 9.46912,0 10.23248,-0.0473 11.77454,-0.7294 0.90693,-0.40118 1.78587,-0.679 1.9532,-0.61736 0.16734,0.0616 -0.50786,2.25516 -1.50044,4.87454 -0.99258,2.61937 -4.91499,15.5575 -8.71646,28.75139 l -6.91177,23.98889 -41.875238,0.0896 c -23.03138,0.0493 -41.8743,-0.03 -41.873154,-0.17639 z m 75.078192,-69.52827 -4.7011,-3.1164 -1.32984,-3.14541 c -0.73141,-1.72998 -1.32673,-3.47761 -1.32292,-3.88366 0.004,-0.40601 5.24427,-19.52046 11.64547,-42.47649 l 11.63854,-41.73827 2.19963,-2.32625 c 16.31369,-17.25292 54.44858,-55.39903 65.03696,-65.05614 2.03334,-1.85452 3.40074,-4.37727 4.27729,-7.8914 0.69719,-2.79498 0.81252,-13.36431 0.33426,-30.62598 -0.225,-8.11995 -0.42207,-10.80354 -0.95525,-13.0079 -1.34296,-5.55205 -3.38875,-8.76639 -6.57014,-10.3229 -2.31542,-1.13283 -5.46798,-1.29368 -7.58617,-0.38706 -2.0539,0.87911 -4.45047,3.34684 -6.20582,6.39006 -5.14928,8.92735 -15.38143,17.8636 -29.53424,25.7938 -13.03464,7.30363 -19.33836,9.14799 -31.22083,9.13476 -7.42174,-0.008 -11.14604,-0.53778 -16.54787,-2.35268 -3.34344,-1.12331 -3.39767,-1.15979 -4.51612,-3.03742 -1.56486,-2.62703 -2.12266,-5.26446 -1.56392,-7.39464 0.64207,-2.44789 2.64509,-5.17765 4.2789,-5.83135 0.74843,-0.29947 4.58782,-1.11167 8.53198,-1.80491 19.03475,-3.34557 26.33422,-6.46311 33.0408,-14.11143 4.25616,-4.8538 7.91963,-11.40345 14.70139,-26.28361 5.00663,-10.98521 6.34859,-13.54369 10.11072,-19.27622 12.69595,-19.34539 26.41692,-32.74644 39.22088,-38.30628 3.66074,-1.58961 7.35524,-2.28994 18.92935,-3.58831 14.90702,-1.67225 27.03442,-2.10394 31.22084,-1.11135 10.36803,2.45824 22.99049,14.65239 37.44729,36.1766 4.77767,7.11333 11.30483,17.95246 15.5079,25.75278 l 3.13648,5.82084 0.0935,33.04512 0.0935,33.04512 -1.07106,0.76267 c -2.67748,1.90651 -7.82896,2.95758 -13.50067,2.75449 -5.74873,-0.20581 -7.50457,-1.32313 -9.32035,-5.93101 -0.57605,-1.46184 -0.6343,-3.72837 -0.73551,-28.63039 l -0.10993,-27.0429 -10.83168,-14.39326 c -5.95743,-7.9163 -11.01059,-14.44652 -11.2292,-14.5116 -0.21862,-0.0651 -0.46955,0.0868 -0.55757,0.33754 -0.11984,0.34125 5.73582,145.09658 6.49016,160.44062 l 0.13007,2.64583 9.89499,14.81667 c 17.46656,26.15424 32.24671,48.93786 35.76342,55.12939 2.43928,4.29458 2.62311,5.70548 1.00975,7.7499 -1.47916,1.87434 -11.56921,10.07953 -13.60964,11.06727 -0.83467,0.40407 -2.12855,0.81665 -2.87528,0.9168 l -1.35766,0.1821 -24.66855,-29.40886 c -13.5677,-16.17486 -25.05202,-29.92903 -25.5208,-30.56481 -0.46873,-0.63581 -6.65328,-15.63768 -13.74348,-33.3375 -10.73298,-26.79368 -13.00935,-32.19662 -13.59679,-32.27176 -0.38806,-0.0496 -3.35235,1.14102 -6.58732,2.64583 l -5.88172,2.73608 -22.43773,20.80627 -22.43776,20.80627 -0.67222,2.30067 c -0.36971,1.26538 -5.46244,19.76318 -11.31718,41.10624 -5.85473,21.34305 -10.76045,39.01638 -10.90159,39.27401 -0.14115,0.25763 -2.3483,1.40857 -4.90478,2.55764 l -4.64816,2.08918 h -7.73106 -7.73106 z m 89.63852,-311.19279 c -5.39306,-0.97791 -11.51703,-3.43773 -15.88982,-6.38245 -3.02782,-2.03898 -7.55865,-6.64295 -9.61697,-9.77221 -2.30815,-3.50904 -4.04491,-7.67484 -4.87736,-11.6989 -0.92322,-4.462752 -0.73533,-11.579826 0.41,-15.530203 4.89225,-16.873881 21.99082,-27.968531 40.28521,-26.139608 15.74867,1.574426 28.25369,11.517903 32.62182,25.939487 0.87309,2.882488 0.9622,3.695027 0.96739,8.819445 0.007,6.501359 -0.55351,9.213369 -2.92943,14.183689 -3.66836,7.674 -9.20705,13.20019 -17.0881,17.04954 -5.57269,2.72188 -9.40291,3.58759 -16.44597,3.71715 -3.20146,0.0589 -6.54802,-0.0248 -7.43677,-0.18594 z"
         id="path480"
         inkscape:connector-curvature="0" />
      <path
         style="fill:#383838;stroke-width:0.35277778"
         d="m -127.4549,552.09228 c -0.29975,-0.36118 0.2837,-1.61044 2.51268,-5.38004 2.7544,-4.65822 355.54241,-598.08757 356.17709,-599.130155 0.16587,-0.27251 0.52151,-0.411081 0.79033,-0.307936 0.62946,0.241554 321.86111,603.463001 321.86111,604.403511 v 0.70827 l -340.4754,0.0884 c -283.389123,0.0736 -340.54088,0.01 -340.86581,-0.38202 z m 665.83638,-9.50225 c 0.18486,-0.48175 -305.59488,-574.98004 -306.53835,-575.923495 -0.35416,-0.354164 -0.68326,-0.440299 -0.87655,-0.229411 -1.04853,1.143945 -342.23599,575.756276 -342.09103,576.134066 0.26002,0.67755 649.24594,0.69642 649.50593,0.0187 z M 313.73284,514.55061 c -8.29469,-0.0527 -15.08126,-0.15663 -15.08126,-0.23089 0,-1.4388 -9.45599,-61.36277 -10.19929,-64.63432 -2.2358,-9.84081 -5.24027,-26.44003 -4.85532,-26.82498 0.0926,-0.0926 4.63561,5.15489 10.09548,11.6611 11.11401,13.24399 10.27401,12.5547 15.30388,12.55826 5.23082,0.004 9.50282,-1.97679 16.62547,-7.7077 9.71303,-7.81512 11.753,-10.52421 12.09756,-16.06529 0.39885,-6.4146 -0.75413,-8.59896 -20.13042,-38.13754 -4.83647,-7.37306 -8.96648,-13.67614 -9.17783,-14.00687 -0.21131,-0.33072 -0.27753,-0.70802 -0.14714,-0.83841 0.13042,-0.13038 2.90251,-0.0378 6.16027,0.20581 3.25773,0.2436 9.73318,0.51584 14.38985,0.60498 4.65666,0.0892 8.59155,0.28092 8.74416,0.42609 0.38534,0.36653 43.56537,142.66274 43.39047,142.98966 -0.12933,0.24176 -29.19695,0.24179 -67.21588,10e-5 z m -129.8471,-1.05833 -14.04779,-0.0965 0.21273,-1.84799 c 0.11701,-1.01642 2.26977,-24.39053 4.78387,-51.94247 4.16582,-45.6521 4.77468,-51.53354 6.86619,-66.32223 1.26224,-8.92528 2.37007,-16.42622 2.46186,-16.66875 0.13169,-0.34805 6.55683,-0.44097 30.49598,-0.44097 17.66545,0 30.41135,0.13299 30.526,0.31852 0.10827,0.17522 1.55893,11.48616 3.22365,25.13542 l 3.0268,24.81689 1.49394,43.39167 c 0.82166,23.86542 1.43479,43.51073 1.36247,43.65626 -0.11984,0.24108 -35.28918,0.24115 -70.4057,10e-5 z m 242.54468,-0.5975 c -1.66053,-3.64448 -61.45661,-140.59507 -61.45661,-140.75372 0,-0.31796 62.9194,-0.22281 63.42161,0.0959 0.79636,0.50535 77.30914,140.14278 76.86926,140.28798 -0.22796,0.0752 -13.11448,0.30184 -28.6367,0.50352 -15.52222,0.20168 -33.07006,0.46619 -38.99518,0.58776 l -10.77295,0.22102 z m -501.699957,0.24613 c 0.01284,-0.14636 17.435647,-32.57172 38.717362,-72.05638 l 38.6940294,-71.79028 34.7292336,-0.0899 c 19.10108,-0.0495 34.839897,0.03 34.975152,0.17639 0.135252,0.14647 -14.876815,32.57193 -33.360156,72.05659 l -33.6060672,71.79028 -40.0864438,0.0897 c -22.047542,0.0493 -40.075944,-0.03 -40.06311,-0.17639 z m 121.687085,-1.0584 c 0.0011,-0.14633 12.03523,-32.57166 26.742416,-72.05631 l 26.740334,-71.79028 9.782812,-0.0938 c 9.71759,-0.0932 11.16847,0.0496 11.16847,1.09929 0,0.24832 -3.96875,14.68353 -8.81944,32.07827 -4.8507,17.39469 -8.81541,31.83064 -8.81047,32.07984 0.005,0.24917 1.24369,3.2312 2.75279,6.62669 l 2.7438,6.17361 3.50902,2.40295 c 1.92996,1.32161 5.24265,3.50442 7.36152,4.85069 l 3.8525,2.44775 h 10.12557 c 9.46912,0 10.23248,-0.0473 11.77454,-0.7294 0.90693,-0.40118 1.78587,-0.679 1.9532,-0.61736 0.16734,0.0616 -0.50786,2.25516 -1.50044,4.87454 -0.99258,2.61937 -4.91499,15.5575 -8.71646,28.75139 l -6.91177,23.98889 -41.875238,0.0896 c -23.03138,0.0493 -41.8743,-0.03 -41.873154,-0.17639 z m 75.078192,-69.52827 -4.7011,-3.1164 -1.32984,-3.14541 c -0.73141,-1.72998 -1.32673,-3.47761 -1.32292,-3.88366 0.004,-0.40601 5.24427,-19.52046 11.64547,-42.47649 l 11.63854,-41.73827 2.19963,-2.32625 c 16.31369,-17.25292 54.44858,-55.39903 65.03696,-65.05614 2.03334,-1.85452 3.40074,-4.37727 4.27729,-7.8914 0.69719,-2.79498 0.81252,-13.36431 0.33426,-30.62598 -0.225,-8.11995 -0.42207,-10.80354 -0.95525,-13.0079 -1.34296,-5.55205 -3.38875,-8.76639 -6.57014,-10.3229 -2.31542,-1.13283 -5.46798,-1.29368 -7.58617,-0.38706 -2.0539,0.87911 -4.45047,3.34684 -6.20582,6.39006 -5.14928,8.92735 -15.38143,17.8636 -29.53424,25.7938 -13.03464,7.30363 -19.33836,9.14799 -31.22083,9.13476 -7.42174,-0.008 -11.14604,-0.53778 -16.54787,-2.35268 -3.34344,-1.12331 -3.39767,-1.15979 -4.51612,-3.03742 -1.56486,-2.62703 -2.12266,-5.26446 -1.56392,-7.39464 0.64207,-2.44789 2.64509,-5.17765 4.2789,-5.83135 0.74843,-0.29947 4.58782,-1.11167 8.53198,-1.80491 19.03475,-3.34557 26.33422,-6.46311 33.0408,-14.11143 4.25616,-4.8538 7.91963,-11.40345 14.70139,-26.28361 5.00663,-10.98521 6.34859,-13.54369 10.11072,-19.27622 12.69595,-19.34539 26.41692,-32.74644 39.22088,-38.30628 3.66074,-1.58961 7.35524,-2.28994 18.92935,-3.58831 14.90702,-1.67225 27.03442,-2.10394 31.22084,-1.11135 10.36803,2.45824 22.99049,14.65239 37.44729,36.1766 4.77767,7.11333 11.30483,17.95246 15.5079,25.75278 l 3.13648,5.82084 0.0935,33.04512 0.0935,33.04512 -1.07106,0.76267 c -2.67748,1.90651 -7.82896,2.95758 -13.50067,2.75449 -5.74873,-0.20581 -7.50457,-1.32313 -9.32035,-5.93101 -0.57605,-1.46184 -0.6343,-3.72837 -0.73551,-28.63039 l -0.10993,-27.0429 -10.83168,-14.39326 c -5.95743,-7.9163 -11.01059,-14.44652 -11.2292,-14.5116 -0.21862,-0.0651 -0.46955,0.0868 -0.55757,0.33754 -0.11984,0.34125 5.73582,145.09658 6.49016,160.44062 l 0.13007,2.64583 9.89499,14.81667 c 17.46656,26.15424 32.24671,48.93786 35.76342,55.12939 2.43928,4.29458 2.62311,5.70548 1.00975,7.7499 -1.47916,1.87434 -11.56921,10.07953 -13.60964,11.06727 -0.83467,0.40407 -2.12855,0.81665 -2.87528,0.9168 l -1.35766,0.1821 -24.66855,-29.40886 c -13.5677,-16.17486 -25.05202,-29.92903 -25.5208,-30.56481 -0.46873,-0.63581 -6.65328,-15.63768 -13.74348,-33.3375 -10.73298,-26.79368 -13.00935,-32.19662 -13.59679,-32.27176 -0.38806,-0.0496 -3.35235,1.14102 -6.58732,2.64583 l -5.88172,2.73608 -22.43773,20.80627 -22.43776,20.80627 -0.67222,2.30067 c -0.36971,1.26538 -5.46244,19.76318 -11.31718,41.10624 -5.85473,21.34305 -10.76045,39.01638 -10.90159,39.27401 -0.14115,0.25763 -2.3483,1.40857 -4.90478,2.55764 l -4.64816,2.08918 h -7.73106 -7.73106 z m 89.63852,-311.19279 c -5.39306,-0.97791 -11.51703,-3.43773 -15.88982,-6.38245 -3.02782,-2.03898 -7.55865,-6.64295 -9.61697,-9.77221 -2.30815,-3.50904 -4.04491,-7.67484 -4.87736,-11.6989 -0.92322,-4.462752 -0.73533,-11.579826 0.41,-15.530203 4.89225,-16.873881 21.99082,-27.968531 40.28521,-26.139608 15.74867,1.574426 28.25369,11.517903 32.62182,25.939487 0.87309,2.882488 0.9622,3.695027 0.96739,8.819445 0.007,6.501359 -0.55351,9.213369 -2.92943,14.183689 -3.66836,7.674 -9.20705,13.20019 -17.0881,17.04954 -5.57269,2.72188 -9.40291,3.58759 -16.44597,3.71715 -3.20146,0.0589 -6.54802,-0.0248 -7.43677,-0.18594 z"
         id="path478"
         inkscape:connector-curvature="0" />
      <path
         style="fill:#242424;stroke-width:0.35277778"
         d="m -127.0133,551.70729 c -0.13874,-0.36153 294.60508,-496.883269 354.31667,-596.877413 3.66868,-6.143626 4.47132,-7.279595 4.86061,-6.879167 0.89418,0.919741 321.58821,603.55225 321.37072,603.90415 -0.14665,0.23731 -112.74182,0.35468 -340.28723,0.35468 -293.857855,0 -340.09423,-0.0683 -340.26077,-0.50225 z m 665.39478,-9.11726 c 0.18486,-0.48175 -305.59488,-574.98004 -306.53835,-575.923495 -0.35416,-0.354164 -0.68326,-0.440299 -0.87655,-0.229411 -1.04853,1.143945 -342.23599,575.756276 -342.09103,576.134066 0.26002,0.67755 649.24594,0.69642 649.50593,0.0187 z M 313.73284,514.55061 c -8.29469,-0.0527 -15.08126,-0.15663 -15.08126,-0.23089 0,-1.4388 -9.45599,-61.36277 -10.19929,-64.63432 -2.2358,-9.84081 -5.24027,-26.44003 -4.85532,-26.82498 0.0926,-0.0926 4.63561,5.15489 10.09548,11.6611 11.11401,13.24399 10.27401,12.5547 15.30388,12.55826 5.23082,0.004 9.50282,-1.97679 16.62547,-7.7077 9.71303,-7.81512 11.753,-10.52421 12.09756,-16.06529 0.39885,-6.4146 -0.75413,-8.59896 -20.13042,-38.13754 -4.83647,-7.37306 -8.96648,-13.67614 -9.17783,-14.00687 -0.21131,-0.33072 -0.27753,-0.70802 -0.14714,-0.83841 0.13042,-0.13038 2.90251,-0.0378 6.16027,0.20581 3.25773,0.2436 9.73318,0.51584 14.38985,0.60498 4.65666,0.0892 8.59155,0.28092 8.74416,0.42609 0.38534,0.36653 43.56537,142.66274 43.39047,142.98966 -0.12933,0.24176 -29.19695,0.24179 -67.21588,10e-5 z m -129.8471,-1.05833 -14.04779,-0.0965 0.21273,-1.84799 c 0.11701,-1.01642 2.26977,-24.39053 4.78387,-51.94247 4.16582,-45.6521 4.77468,-51.53354 6.86619,-66.32223 1.26224,-8.92528 2.37007,-16.42622 2.46186,-16.66875 0.13169,-0.34805 6.55683,-0.44097 30.49598,-0.44097 17.66545,0 30.41135,0.13299 30.526,0.31852 0.10827,0.17522 1.55893,11.48616 3.22365,25.13542 l 3.0268,24.81689 1.49394,43.39167 c 0.82166,23.86542 1.43479,43.51073 1.36247,43.65626 -0.11984,0.24108 -35.28918,0.24115 -70.4057,10e-5 z m 242.54468,-0.5975 c -1.66053,-3.64448 -61.45661,-140.59507 -61.45661,-140.75372 0,-0.31796 62.9194,-0.22281 63.42161,0.0959 0.79636,0.50535 77.30914,140.14278 76.86926,140.28798 -0.22796,0.0752 -13.11448,0.30184 -28.6367,0.50352 -15.52222,0.20168 -33.07006,0.46619 -38.99518,0.58776 l -10.77295,0.22102 z m -501.699957,0.24613 c 0.01284,-0.14636 17.435647,-32.57172 38.717362,-72.05638 l 38.6940294,-71.79028 34.7292336,-0.0899 c 19.10108,-0.0495 34.839897,0.03 34.975152,0.17639 0.135252,0.14647 -14.876815,32.57193 -33.360156,72.05659 l -33.6060672,71.79028 -40.0864438,0.0897 c -22.047542,0.0493 -40.075944,-0.03 -40.06311,-0.17639 z m 121.687085,-1.0584 c 0.0011,-0.14633 12.03523,-32.57166 26.742416,-72.05631 l 26.740334,-71.79028 9.782812,-0.0938 c 9.71759,-0.0932 11.16847,0.0496 11.16847,1.09929 0,0.24832 -3.96875,14.68353 -8.81944,32.07827 -4.8507,17.39469 -8.81541,31.83064 -8.81047,32.07984 0.005,0.24917 1.24369,3.2312 2.75279,6.62669 l 2.7438,6.17361 3.50902,2.40295 c 1.92996,1.32161 5.24265,3.50442 7.36152,4.85069 l 3.8525,2.44775 h 10.12557 c 9.46912,0 10.23248,-0.0473 11.77454,-0.7294 0.90693,-0.40118 1.78587,-0.679 1.9532,-0.61736 0.16734,0.0616 -0.50786,2.25516 -1.50044,4.87454 -0.99258,2.61937 -4.91499,15.5575 -8.71646,28.75139 l -6.91177,23.98889 -41.875238,0.0896 c -23.03138,0.0493 -41.8743,-0.03 -41.873154,-0.17639 z m 75.078192,-69.52827 -4.7011,-3.1164 -1.32984,-3.14541 c -0.73141,-1.72998 -1.32673,-3.47761 -1.32292,-3.88366 0.004,-0.40601 5.24427,-19.52046 11.64547,-42.47649 l 11.63854,-41.73827 2.19963,-2.32625 c 16.31369,-17.25292 54.44858,-55.39903 65.03696,-65.05614 2.03334,-1.85452 3.40074,-4.37727 4.27729,-7.8914 0.69719,-2.79498 0.81252,-13.36431 0.33426,-30.62598 -0.225,-8.11995 -0.42207,-10.80354 -0.95525,-13.0079 -1.34296,-5.55205 -3.38875,-8.76639 -6.57014,-10.3229 -2.31542,-1.13283 -5.46798,-1.29368 -7.58617,-0.38706 -2.0539,0.87911 -4.45047,3.34684 -6.20582,6.39006 -5.14928,8.92735 -15.38143,17.8636 -29.53424,25.7938 -13.03464,7.30363 -19.33836,9.14799 -31.22083,9.13476 -7.42174,-0.008 -11.14604,-0.53778 -16.54787,-2.35268 -3.34344,-1.12331 -3.39767,-1.15979 -4.51612,-3.03742 -1.56486,-2.62703 -2.12266,-5.26446 -1.56392,-7.39464 0.64207,-2.44789 2.64509,-5.17765 4.2789,-5.83135 0.74843,-0.29947 4.58782,-1.11167 8.53198,-1.80491 19.03475,-3.34557 26.33422,-6.46311 33.0408,-14.11143 4.25616,-4.8538 7.91963,-11.40345 14.70139,-26.28361 5.00663,-10.98521 6.34859,-13.54369 10.11072,-19.27622 12.69595,-19.34539 26.41692,-32.74644 39.22088,-38.30628 3.66074,-1.58961 7.35524,-2.28994 18.92935,-3.58831 14.90702,-1.67225 27.03442,-2.10394 31.22084,-1.11135 10.36803,2.45824 22.99049,14.65239 37.44729,36.1766 4.77767,7.11333 11.30483,17.95246 15.5079,25.75278 l 3.13648,5.82084 0.0935,33.04512 0.0935,33.04512 -1.07106,0.76267 c -2.67748,1.90651 -7.82896,2.95758 -13.50067,2.75449 -5.74873,-0.20581 -7.50457,-1.32313 -9.32035,-5.93101 -0.57605,-1.46184 -0.6343,-3.72837 -0.73551,-28.63039 l -0.10993,-27.0429 -10.83168,-14.39326 c -5.95743,-7.9163 -11.01059,-14.44652 -11.2292,-14.5116 -0.21862,-0.0651 -0.46955,0.0868 -0.55757,0.33754 -0.11984,0.34125 5.73582,145.09658 6.49016,160.44062 l 0.13007,2.64583 9.89499,14.81667 c 17.46656,26.15424 32.24671,48.93786 35.76342,55.12939 2.43928,4.29458 2.62311,5.70548 1.00975,7.7499 -1.47916,1.87434 -11.56921,10.07953 -13.60964,11.06727 -0.83467,0.40407 -2.12855,0.81665 -2.87528,0.9168 l -1.35766,0.1821 -24.66855,-29.40886 c -13.5677,-16.17486 -25.05202,-29.92903 -25.5208,-30.56481 -0.46873,-0.63581 -6.65328,-15.63768 -13.74348,-33.3375 -10.73298,-26.79368 -13.00935,-32.19662 -13.59679,-32.27176 -0.38806,-0.0496 -3.35235,1.14102 -6.58732,2.64583 l -5.88172,2.73608 -22.43773,20.80627 -22.43776,20.80627 -0.67222,2.30067 c -0.36971,1.26538 -5.46244,19.76318 -11.31718,41.10624 -5.85473,21.34305 -10.76045,39.01638 -10.90159,39.27401 -0.14115,0.25763 -2.3483,1.40857 -4.90478,2.55764 l -4.64816,2.08918 h -7.73106 -7.73106 z m 89.63852,-311.19279 c -5.39306,-0.97791 -11.51703,-3.43773 -15.88982,-6.38245 -3.02782,-2.03898 -7.55865,-6.64295 -9.61697,-9.77221 -2.30815,-3.50904 -4.04491,-7.67484 -4.87736,-11.6989 -0.92322,-4.462752 -0.73533,-11.579826 0.41,-15.530203 4.89225,-16.873881 21.99082,-27.968531 40.28521,-26.139608 15.74867,1.574426 28.25369,11.517903 32.62182,25.939487 0.87309,2.882488 0.9622,3.695027 0.96739,8.819445 0.007,6.501359 -0.55351,9.213369 -2.92943,14.183689 -3.66836,7.674 -9.20705,13.20019 -17.0881,17.04954 -5.57269,2.72188 -9.40291,3.58759 -16.44597,3.71715 -3.20146,0.0589 -6.54802,-0.0248 -7.43677,-0.18594 z"
         id="path476"
         inkscape:connector-curvature="0" />
      <path
         style="fill:#000000;stroke-width:0.35277778"
         d="m -126.79843,551.3845 c 0,-0.36499 358.37242,-602.935432 358.63535,-603.012546 0.28691,-0.08414 320.83845,601.528616 321.10511,602.651686 0.0962,0.40503 -53.1906,0.48034 -339.8132,0.48034 -186.959986,0 -339.92726,-0.0538 -339.92726,-0.11948 z m 665.17991,-8.79447 c 0.18486,-0.48175 -305.59488,-574.98004 -306.53835,-575.923495 -0.35416,-0.354164 -0.68326,-0.440299 -0.87655,-0.229411 -1.04853,1.143945 -342.23599,575.756276 -342.09103,576.134066 0.26002,0.67755 649.24594,0.69642 649.50593,0.0187 z M 313.73284,514.55061 c -8.29469,-0.0527 -15.08126,-0.15663 -15.08126,-0.23089 0,-1.4388 -9.45599,-61.36277 -10.19929,-64.63432 -2.2358,-9.84081 -5.24027,-26.44003 -4.85532,-26.82498 0.0926,-0.0926 4.63561,5.15489 10.09548,11.6611 11.11401,13.24399 10.27401,12.5547 15.30388,12.55826 5.23082,0.004 9.50282,-1.97679 16.62547,-7.7077 9.71303,-7.81512 11.753,-10.52421 12.09756,-16.06529 0.39885,-6.4146 -0.75413,-8.59896 -20.13042,-38.13754 -4.83647,-7.37306 -8.96648,-13.67614 -9.17783,-14.00687 -0.21131,-0.33072 -0.27753,-0.70802 -0.14714,-0.83841 0.13042,-0.13038 2.90251,-0.0378 6.16027,0.20581 3.25773,0.2436 9.73318,0.51584 14.38985,0.60498 4.65666,0.0892 8.59155,0.28092 8.74416,0.42609 0.38534,0.36653 43.56537,142.66274 43.39047,142.98966 -0.12933,0.24176 -29.19695,0.24179 -67.21588,10e-5 z m -129.8471,-1.05833 -14.04779,-0.0965 0.21273,-1.84799 c 0.11701,-1.01642 2.26977,-24.39053 4.78387,-51.94247 4.16582,-45.6521 4.77468,-51.53354 6.86619,-66.32223 1.26224,-8.92528 2.37007,-16.42622 2.46186,-16.66875 0.13169,-0.34805 6.55683,-0.44097 30.49598,-0.44097 17.66545,0 30.41135,0.13299 30.526,0.31852 0.10827,0.17522 1.55893,11.48616 3.22365,25.13542 l 3.0268,24.81689 1.49394,43.39167 c 0.82166,23.86542 1.43479,43.51073 1.36247,43.65626 -0.11984,0.24108 -35.28918,0.24115 -70.4057,10e-5 z m 242.54468,-0.5975 c -1.66053,-3.64448 -61.45661,-140.59507 -61.45661,-140.75372 0,-0.31796 62.9194,-0.22281 63.42161,0.0959 0.79636,0.50535 77.30914,140.14278 76.86926,140.28798 -0.22796,0.0752 -13.11448,0.30184 -28.6367,0.50352 -15.52222,0.20168 -33.07006,0.46619 -38.99518,0.58776 l -10.77295,0.22102 z m -501.699957,0.24613 c 0.01284,-0.14636 17.435647,-32.57172 38.717362,-72.05638 l 38.6940294,-71.79028 34.7292336,-0.0899 c 19.10108,-0.0495 34.839897,0.03 34.975152,0.17639 0.135252,0.14647 -14.876815,32.57193 -33.360156,72.05659 l -33.6060672,71.79028 -40.0864438,0.0897 c -22.047542,0.0493 -40.075944,-0.03 -40.06311,-0.17639 z m 121.687085,-1.0584 c 0.0011,-0.14633 12.03523,-32.57166 26.742416,-72.05631 l 26.740334,-71.79028 9.782812,-0.0938 c 9.71759,-0.0932 11.16847,0.0496 11.16847,1.09929 0,0.24832 -3.96875,14.68353 -8.81944,32.07827 -4.8507,17.39469 -8.81541,31.83064 -8.81047,32.07984 0.005,0.24917 1.24369,3.2312 2.75279,6.62669 l 2.7438,6.17361 3.50902,2.40295 c 1.92996,1.32161 5.24265,3.50442 7.36152,4.85069 l 3.8525,2.44775 h 10.12557 c 9.46912,0 10.23248,-0.0473 11.77454,-0.7294 0.90693,-0.40118 1.78587,-0.679 1.9532,-0.61736 0.16734,0.0616 -0.50786,2.25516 -1.50044,4.87454 -0.99258,2.61937 -4.91499,15.5575 -8.71646,28.75139 l -6.91177,23.98889 -41.875238,0.0896 c -23.03138,0.0493 -41.8743,-0.03 -41.873154,-0.17639 z m 75.078192,-69.52827 -4.7011,-3.1164 -1.32984,-3.14541 c -0.73141,-1.72998 -1.32673,-3.47761 -1.32292,-3.88366 0.004,-0.40601 5.24427,-19.52046 11.64547,-42.47649 l 11.63854,-41.73827 2.19963,-2.32625 c 16.31369,-17.25292 54.44858,-55.39903 65.03696,-65.05614 2.03334,-1.85452 3.40074,-4.37727 4.27729,-7.8914 0.69719,-2.79498 0.81252,-13.36431 0.33426,-30.62598 -0.225,-8.11995 -0.42207,-10.80354 -0.95525,-13.0079 -1.34296,-5.55205 -3.38875,-8.76639 -6.57014,-10.3229 -2.31542,-1.13283 -5.46798,-1.29368 -7.58617,-0.38706 -2.0539,0.87911 -4.45047,3.34684 -6.20582,6.39006 -5.14928,8.92735 -15.38143,17.8636 -29.53424,25.7938 -13.03464,7.30363 -19.33836,9.14799 -31.22083,9.13476 -7.42174,-0.008 -11.14604,-0.53778 -16.54787,-2.35268 -3.34344,-1.12331 -3.39767,-1.15979 -4.51612,-3.03742 -1.56486,-2.62703 -2.12266,-5.26446 -1.56392,-7.39464 0.64207,-2.44789 2.64509,-5.17765 4.2789,-5.83135 0.74843,-0.29947 4.58782,-1.11167 8.53198,-1.80491 19.03475,-3.34557 26.33422,-6.46311 33.0408,-14.11143 4.25616,-4.8538 7.91963,-11.40345 14.70139,-26.28361 5.00663,-10.98521 6.34859,-13.54369 10.11072,-19.27622 12.69595,-19.34539 26.41692,-32.74644 39.22088,-38.30628 3.66074,-1.58961 7.35524,-2.28994 18.92935,-3.58831 14.90702,-1.67225 27.03442,-2.10394 31.22084,-1.11135 10.36803,2.45824 22.99049,14.65239 37.44729,36.1766 4.77767,7.11333 11.30483,17.95246 15.5079,25.75278 l 3.13648,5.82084 0.0935,33.04512 0.0935,33.04512 -1.07106,0.76267 c -2.67748,1.90651 -7.82896,2.95758 -13.50067,2.75449 -5.74873,-0.20581 -7.50457,-1.32313 -9.32035,-5.93101 -0.57605,-1.46184 -0.6343,-3.72837 -0.73551,-28.63039 l -0.10993,-27.0429 -10.83168,-14.39326 c -5.95743,-7.9163 -11.01059,-14.44652 -11.2292,-14.5116 -0.21862,-0.0651 -0.46955,0.0868 -0.55757,0.33754 -0.11984,0.34125 5.73582,145.09658 6.49016,160.44062 l 0.13007,2.64583 9.89499,14.81667 c 17.46656,26.15424 32.24671,48.93786 35.76342,55.12939 2.43928,4.29458 2.62311,5.70548 1.00975,7.7499 -1.47916,1.87434 -11.56921,10.07953 -13.60964,11.06727 -0.83467,0.40407 -2.12855,0.81665 -2.87528,0.9168 l -1.35766,0.1821 -24.66855,-29.40886 c -13.5677,-16.17486 -25.05202,-29.92903 -25.5208,-30.56481 -0.46873,-0.63581 -6.65328,-15.63768 -13.74348,-33.3375 -10.73298,-26.79368 -13.00935,-32.19662 -13.59679,-32.27176 -0.38806,-0.0496 -3.35235,1.14102 -6.58732,2.64583 l -5.88172,2.73608 -22.43773,20.80627 -22.43776,20.80627 -0.67222,2.30067 c -0.36971,1.26538 -5.46244,19.76318 -11.31718,41.10624 -5.85473,21.34305 -10.76045,39.01638 -10.90159,39.27401 -0.14115,0.25763 -2.3483,1.40857 -4.90478,2.55764 l -4.64816,2.08918 h -7.73106 -7.73106 z m 89.63852,-311.19279 c -5.39306,-0.97791 -11.51703,-3.43773 -15.88982,-6.38245 -3.02782,-2.03898 -7.55865,-6.64295 -9.61697,-9.77221 -2.30815,-3.50904 -4.04491,-7.67484 -4.87736,-11.6989 -0.92322,-4.462752 -0.73533,-11.579826 0.41,-15.530203 4.89225,-16.873881 21.99082,-27.968531 40.28521,-26.139608 15.74867,1.574426 28.25369,11.517903 32.62182,25.939487 0.87309,2.882488 0.9622,3.695027 0.96739,8.819445 0.007,6.501359 -0.55351,9.213369 -2.92943,14.183689 -3.66836,7.674 -9.20705,13.20019 -17.0881,17.04954 -5.57269,2.72188 -9.40291,3.58759 -16.44597,3.71715 -3.20146,0.0589 -6.54802,-0.0248 -7.43677,-0.18594 z"
         id="path474"
         inkscape:connector-curvature="0" />
    </g>
  </g>
</svg>
