<?xml version="1.0" encoding="UTF-8" standalone="no"?>
<svg
   id="Layer_1"
   data-name="Layer 1"
   viewBox="0 0 44 44"
   version="1.1"
   sodipodi:docname="test_logo.svg"
   inkscape:version="1.3.2 (091e20e, 2023-11-25, custom)"
   xmlns:inkscape="http://www.inkscape.org/namespaces/inkscape"
   xmlns:sodipodi="http://sodipodi.sourceforge.net/DTD/sodipodi-0.dtd"
   xmlns="http://www.w3.org/2000/svg"
   xmlns:svg="http://www.w3.org/2000/svg">
  <sodipodi:namedview
     id="namedview4"
     pagecolor="#ffffff"
     bordercolor="#000000"
     borderopacity="0.25"
     inkscape:showpageshadow="2"
     inkscape:pageopacity="0.0"
     inkscape:pagecheckerboard="0"
     inkscape:deskcolor="#d1d1d1"
     showgrid="false"
     inkscape:zoom="41.340909"
     inkscape:cx="22.012095"
     inkscape:cy="21.987905"
     inkscape:window-width="3834"
     inkscape:window-height="2035"
     inkscape:window-x="1912"
     inkscape:window-y="0"
     inkscape:window-maximized="0"
     inkscape:current-layer="Layer_1" />
  <defs
     id="defs1">
    <style
       id="style1">.cls-1{fill:#ff4775;}.cls-2{fill:#00e9a8;}.cls-3{fill:#8061fe;}.cls-4{fill:#009aff;}</style>
  </defs>
  <title
     id="title1">test_logo</title>
  <g
     id="g4"
     transform="matrix(0.72997318,-0.72997318,0.72997318,0.72997318,-10.11882,22)"
     inkscape:export-filename="g422.svg"
     inkscape:export-xdpi="387.08884"
     inkscape:export-ydpi="387.08884">
    <path
       class="cls-1"
       d="M 36.67,20.17 A 1.84,1.84 0 0 1 34.83,18.33 V 14.67 A 5.34,5.34 0 0 0 34.64,13.22 L 34.52,12.83 A 5.51,5.51 0 0 0 31.17,9.48 5.59,5.59 0 0 0 29.33,9.17 H 27.5 v 3.66 h 1.83 a 1.84,1.84 0 0 1 1.84,1.84 v 3.66 a 5.34,5.34 0 0 0 0.19,1.45 2.91,2.91 0 0 0 0.12,0.39 5.51,5.51 0 0 0 3.35,3.35 5.59,5.59 0 0 0 1.84,0.31 h 1.83 v -3.66 z"
       id="path1" />
    <path
       class="cls-2"
       d="m 7.33,23.83 a 1.84,1.84 0 0 1 1.84,1.84 v 3.66 a 5.34,5.34 0 0 0 0.19,1.45 l 0.12,0.39 a 5.51,5.51 0 0 0 3.35,3.35 5.59,5.59 0 0 0 1.84,0.31 H 16.5 V 31.17 H 14.67 A 1.84,1.84 0 0 1 12.83,29.33 V 25.67 A 5.34,5.34 0 0 0 12.64,24.22 2.91,2.91 0 0 0 12.52,23.83 5.51,5.51 0 0 0 9.17,20.48 5.59,5.59 0 0 0 7.33,20.17 H 5.5 v 3.66 z"
       id="path2" />
    <path
       class="cls-3"
       d="m 36.67,23.83 a 1.84,1.84 0 0 0 -1.84,1.84 v 3.66 a 5.34,5.34 0 0 1 -0.19,1.45 l -0.12,0.39 a 5.51,5.51 0 0 1 -3.35,3.35 5.59,5.59 0 0 1 -1.84,0.31 H 27.5 v -3.66 h 1.83 a 1.84,1.84 0 0 0 1.84,-1.84 v -3.66 a 5.34,5.34 0 0 1 0.19,-1.45 2.91,2.91 0 0 1 0.12,-0.39 5.51,5.51 0 0 1 3.35,-3.35 5.59,5.59 0 0 1 1.84,-0.31 h 1.83 v 3.66 z"
       id="path3" />
    <path
       class="cls-4"
       d="m 7.33,20.17 a 1.84,1.84 0 0 0 1.84,-1.84 v -3.66 a 5.34,5.34 0 0 1 0.19,-1.45 l 0.12,-0.39 a 5.51,5.51 0 0 1 3.35,-3.35 5.59,5.59 0 0 1 1.84,-0.31 h 1.83 v 3.66 h -1.83 a 1.84,1.84 0 0 0 -1.84,1.84 v 3.66 a 5.34,5.34 0 0 1 -0.19,1.45 2.91,2.91 0 0 1 -0.12,0.39 5.51,5.51 0 0 1 -3.35,3.35 5.59,5.59 0 0 1 -1.84,0.31 H 5.5 v -3.66 z"
       id="path4" />
  </g>
</svg>
