<?xml version="1.0" encoding="utf-8"?>
<svg viewBox="0 0 16 16" xmlns="http://www.w3.org/2000/svg">
  <defs>
    <style>.canvas{fill: none; opacity: 0;}.light-blue-10{fill: #005dba; opacity: 0.1;}.light-blue{fill: #005dba; opacity: 1;}.light-defaultgrey{fill: #212121; opacity: 1;}</style>
  </defs>
  <title>WPFWebSite</title>
  <g id="canvas">
    <path class="canvas" d="M16,16H0V0H16Z"/>
  </g>
  <g id="level-1">
    <path class="light-blue-10" d="M12.6,3.4A6.505,6.505,0,0,0,1.62,9.27a6.371,6.371,0,0,0,.21.78l.32-.32.17.17.1.1.99,1H7.59l.99-1,.27-.27,1.97,1.97.95.95.08.08v.5a6.288,6.288,0,0,0,1.55-1.62,6.5,6.5,0,0,0-.8-8.21Z" style="fill: rgb(56, 56, 56);"/>
    <path class="light-blue" d="M12.95,3.05A7,7,0,0,0,1.13,9.37a6.558,6.558,0,0,0,.31,1.07l.71-.71.17.17A5.83,5.83,0,0,1,2,8a5.93,5.93,0,0,1,.35-2H4.7a10.354,10.354,0,0,0,0,4H2.42l.99,1H7.59l.99-1H5.72A9.648,9.648,0,0,1,5.5,8a9.648,9.648,0,0,1,.22-2h4.56a9.648,9.648,0,0,1,.22,2,9.648,9.648,0,0,1-.22,2H9.12l1.7,1.7c.08-.23.16-.46.23-.7h2.14a5.785,5.785,0,0,1-1.42,1.65l.08.08v1.11a6.778,6.778,0,0,0,1.97-1.95,7,7,0,0,0-.87-8.84ZM4.95,5H2.81a6.067,6.067,0,0,1,3.4-2.73A10.4,10.4,0,0,0,4.95,5ZM6,5A9.525,9.525,0,0,1,7.63,2.02C7.75,2.01,7.87,2,8,2s.25.01.37.02A9.327,9.327,0,0,1,10,5ZM9.79,2.27A6.067,6.067,0,0,1,13.19,5H11.05A10.577,10.577,0,0,0,9.79,2.27ZM11.3,10a10.354,10.354,0,0,0,0-4h2.35a5.85,5.85,0,0,1,0,4Z" style="fill: rgb(30, 30, 30);"/>
    <path class="light-blue" d="M7,12v3H4V12Z"/>
    <path class="light-defaultgrey" d="M10.854,13.146v.708l-2,2-.708-.708L9.793,13.5,8.146,11.854l.708-.708Zm-8.708-2-2,2v.708l2,2,.708-.708L1.207,13.5l1.647-1.646Z"/>
  </g>
</svg>