<svg width="16" height="16" viewBox="0 0 16 16" fill="none" xmlns="http://www.w3.org/2000/svg">
<path d="M3.09997 14.79L1.40997 13.11" stroke="#00E9A8" stroke-miterlimit="10" stroke-linecap="square"/>
<path d="M5.72998 11.43L7.40998 13.11" stroke="#FF4775" stroke-miterlimit="10" stroke-linecap="square"/>
<path d="M7.40998 13.11L5.72998 14.79" stroke="#8061FE" stroke-miterlimit="10" stroke-linecap="square"/>
<path d="M1.40997 13.11L3.09997 11.43" stroke="#009AFF" stroke-miterlimit="10" stroke-linecap="square"/>
<path d="M14.54 4.69H3.46002" stroke="#000000" stroke-linecap="round" stroke-linejoin="round"/>
<path d="M8.46001 1C6.41335 3.76667 5.77335 6.51667 6.54001 9.25" stroke="#000000" stroke-linecap="round" stroke-linejoin="round"/>
<path d="M3.46002 9.31H14.54" stroke="#000000" stroke-linecap="round" stroke-linejoin="round"/>
<path d="M9.53998 13C12.5133 9 12.5133 5 9.53998 1" stroke="#000000" stroke-linecap="round" stroke-linejoin="round"/>
<path d="M3.46002 9.32C3.1522 8.58548 2.99574 7.7964 3.00002 7C3.00474 5.83738 3.34714 4.70117 3.98559 3.72952C4.62404 2.75787 5.53103 1.99264 6.59629 1.52688C7.66155 1.06111 8.83918 0.914867 9.98601 1.10593C11.1328 1.297 12.1994 1.81714 13.0562 2.60312C13.9129 3.38909 14.5228 4.40704 14.8117 5.5332C15.1007 6.65935 15.0562 7.8452 14.6837 8.94655C14.3113 10.0479 13.6268 11.0173 12.7137 11.7369C11.8005 12.4566 10.6979 12.8954 9.54002 13" stroke="#000000" stroke-linecap="round" stroke-linejoin="round"/>
</svg>
