<svg xmlns="http://www.w3.org/2000/svg" xmlns:xlink="http://www.w3.org/1999/xlink" viewBox="0 0 552.17 742"><defs><linearGradient id="linear-gradient" x1="3406.44" y1="389.7" x2="3423.65" y2="371.56" gradientTransform="translate(3672.63 555.2) rotate(180)" gradientUnits="userSpaceOnUse"><stop offset="0" stop-opacity="0.9"/><stop offset="0.79" stop-opacity="0"/></linearGradient><linearGradient id="linear-gradient-2" x1="3427.83" y1="-6174.78" x2="3445.04" y2="-6192.92" gradientTransform="translate(6493.11 3627.11) rotate(-90)" xlink:href="#linear-gradient"/><linearGradient id="linear-gradient-3" x1="-3147.32" y1="320.88" x2="-3130.11" y2="302.74" gradientTransform="translate(555.65 3362.6) rotate(90)" xlink:href="#linear-gradient"/><linearGradient id="linear-gradient-4" x1="-3094.97" y1="-6256.1" x2="-3077.76" y2="-6274.24" gradientTransform="translate(3381.84 6505.21)" xlink:href="#linear-gradient"/></defs><title>Uno-Platform-Logo-White</title><g style="isolation:isolate"><g id="Layer_2" data-name="Layer 2"><g id="Uno-Platform-Logo-White"><path d="M356.26,325.47h-.1c-23.9-.05-45.26-16.61-72-43.32l-58-57.56,18.14-18.32,58.1,57.61c25.75,25.75,40.83,35.78,53.82,35.8h0c13.12,0,29-10.56,54.91-36.45l29.66-30c14.94-14.94,21.52-28,20.17-39.88-1.1-9.68-7.49-20.07-20.11-32.69l-.28-.29c-13.63-14.5-30.3-30.67-47.72-39.62-3.24-16.56-13.83-29.59-15.34-32,31.85,4.68,60.28,31,81.72,53.8,23.35,23.39,48.59,60.09-.15,108.84l-29.65,30C402.24,308.63,380.52,325.47,356.26,325.47Z" style="fill:#fff"/><path d="M277.88,239.57l54.36-54.95C358,158.86,368,143.78,368.06,130.79s-10.53-29-36.45-55l-30-29.65C271,15.64,252.51,22.6,229,46.12l-.28.27c-12.89,12.13-27.1,26.65-36.39,42-8.63.61-19.78,3.55-33.47,12.71,7.58-28.44,31.29-53.78,52.05-73.32,23.4-23.35,60.1-48.6,108.84.14l30.05,29.66c27.25,27.25,44.1,49,44.06,73.3-.05,23.9-16.61,45.26-43.32,72l-54.34,54.92Z" style="fill:#fff"/><path d="M170,324.15c-30-6.38-56.74-31.28-77.15-53-10.67-10.68-25-27.22-27.36-47.88-2.29-20.23,6.7-40.16,27.5-61l29.65-30c27.22-27.22,48.94-44.06,73.2-44.06h.1c23.9,0,45.26,16.61,72,43.32L327,190,308.82,208.3l-59.06-58.47C224,124.07,208.92,114,195.94,114h-.05c-13.12,0-29,10.56-54.91,36.44l-29.66,30c-14.94,14.94-21.52,28-20.17,39.87,1.1,9.69,7.49,20.08,20.11,32.7l.28.28c13,13.81,28.72,29.14,45.23,38.3C158.18,306.22,166.82,319.27,170,324.15Z" style="fill:#fff"/><path d="M285.6,417.27c-16.13,0-34.46-7.42-54.92-27.88l-30.05-29.65c-58.68-58.69-58.82-87.19-.74-145.27l57-57.55L275.21,175l-57,57.62c-25.76,25.76-35.78,40.84-35.81,53.83s10.54,29,36.45,55l30,29.65c30.54,30.54,49.06,23.58,72.58.07l.28-.28c13.85-13,29.31-29,38.46-45.53,13.91-1.18,24.3-7.05,32.12-12-6.69,29.62-31.3,56-52.77,76.22C325.94,403.08,307.88,417.27,285.6,417.27Z" style="fill:#fff"/><polygon points="243.18 170.73 256.89 156.88 275.21 175.03 261.98 188.39 243.18 170.73" style="fill-opacity:0.4;mix-blend-mode:multiply;fill:url(#linear-gradient)"/><polygon points="313.11 176.26 326.95 189.97 308.82 208.31 295.44 195.06 313.11 176.26" style="fill-opacity:0.4;mix-blend-mode:multiply;fill:url(#linear-gradient-2)"/><polygon points="240 238.3 226.15 224.59 244.29 206.26 257.66 219.5 240 238.3" style="fill-opacity:0.4;mix-blend-mode:multiply;fill:url(#linear-gradient-3)"/><polygon points="309.89 243.88 296.18 257.73 277.86 239.59 291.09 226.22 309.89 243.88" style="fill-opacity:0.4;mix-blend-mode:multiply;fill:url(#linear-gradient-4)"/><path d="M471.61,495.11a80.57,80.57,0,1,0,80.56,80.56A80.66,80.66,0,0,0,471.61,495.11Zm0,127.86a47.3,47.3,0,1,1,47.3-47.3A47.36,47.36,0,0,1,471.61,623ZM128.13,500.57H161.4v75.1a80.57,80.57,0,1,1-161.13,0l0-1C-.18,555.8,0,528.54.27,509l.1-8.43h34v75.1c0,26.08,20.86,47.3,46.5,47.3a47.36,47.36,0,0,0,47.3-47.3ZM356.8,594.9c.13,8.59.24,16-.15,47.45l-.1,8.43h-34v-75.1c0-26.08-20.86-47.3-46.5-47.3a47.36,47.36,0,0,0-47.3,47.3v75.1H195.52v-75.1a80.57,80.57,0,1,1,161.13,0C356.65,585.26,356.73,590.16,356.8,594.9Z" style="fill:#fff"/><path d="M32.51,710.53c0,4.82-1.51,8.52-4.52,11.07s-7.31,3.84-12.87,3.84H11v15.95H1.53V696.54H15.85q8.16,0,12.41,3.51T32.51,710.53ZM11,717.64h3.13c2.92,0,5.11-.57,6.56-1.73a6.07,6.07,0,0,0,2.18-5,6.2,6.2,0,0,0-1.83-4.93q-1.81-1.6-5.72-1.6H11Z" style="fill:#fff"/><path d="M72.39,741.39V696.54H81.9v37h18.19v7.86Z" style="fill:#fff"/><path d="M166.74,741.39l-3.25-10.68H147.14l-3.25,10.68H133.65l15.83-45H161.1l15.89,45Zm-5.52-18.65q-4.5-14.52-5.07-16.41c-.38-1.27-.65-2.28-.82-3q-1,3.93-5.79,19.42Z" style="fill:#fff"/><path d="M231.35,741.39h-9.51V704.45H209.66v-7.91h33.86v7.91H231.35Z" style="fill:#fff"/><path d="M291.19,741.39h-9.35V696.54h25.7v7.79H291.19V715.9h15.22v7.76H291.19Z" style="fill:#fff"/><path d="M388.43,718.9q0,11.15-5.52,17.12t-15.83,6q-10.31,0-15.83-6t-5.52-17.18q0-11.19,5.54-17.1t15.87-5.91q10.35,0,15.82,6T388.43,718.9Zm-32.73,0q0,7.51,2.86,11.32t8.52,3.8q11.39,0,11.38-15.12t-11.32-15.15q-5.67,0-8.55,3.82T355.7,718.9Z" style="fill:#fff"/><path d="M438.65,724.18v17.21h-9.51V696.54h13.07q9.14,0,13.52,3.33t4.39,10.1a12,12,0,0,1-2.18,7,14.5,14.5,0,0,1-6.16,4.83Q461.89,737,465,741.39H454.41l-10.7-17.21Zm0-7.73h3.06q4.52,0,6.66-1.51a5.36,5.36,0,0,0,2.15-4.72,4.89,4.89,0,0,0-2.2-4.54q-2.19-1.35-6.79-1.35h-2.88Z" style="fill:#fff"/><path d="M521,741.39l-10.8-35.19h-.27q.57,10.74.58,14.33v20.86H502V696.54h13l10.61,34.29h.18L537,696.54h13v44.85H541.1V720.16c0-1,0-2.16,0-3.47s.17-4.78.41-10.43h-.27l-11.57,35.13Z" style="fill:#fff"/></g></g></g></svg>