<svg width="16" height="16" viewBox="0 0 16 16" fill="none" xmlns="http://www.w3.org/2000/svg">
<path d="M13 5.25H9.75C9.48478 5.25 9.23043 5.14464 9.04289 4.95711C8.85536 4.76957 8.75 4.51522 8.75 4.25V1" stroke="#000000" stroke-linejoin="round"/>
<path d="M3 9.67V2C3 1.73478 3.10536 1.48043 3.29289 1.29289C3.48043 1.10536 3.73478 1 4 1H8.75L13 5.25V14C13 14.2652 12.8946 14.5196 12.7071 14.7071C12.5196 14.8946 12.2652 15 12 15H8" stroke="#000000" stroke-linejoin="round"/>
<path d="M3.09997 14.79L1.40997 13.11" stroke="#00E9A8" stroke-miterlimit="10" stroke-linecap="square"/>
<path d="M5.72998 11.43L7.40998 13.11" stroke="#FF4775" stroke-miterlimit="10" stroke-linecap="square"/>
<path d="M7.40998 13.11L5.72998 14.79" stroke="#8061FE" stroke-miterlimit="10" stroke-linecap="square"/>
<path d="M1.40997 13.11L3.09997 11.43" stroke="#009AFF" stroke-miterlimit="10" stroke-linecap="square"/>
</svg>
