<?xml version="1.0" encoding="UTF-8" standalone="no"?>
<svg xmlns="http://www.w3.org/2000/svg" xmlns:xlink="http://www.w3.org/1999/xlink" width="423.41574" height="458.79999">
  <defs>
    <path id="a" fill="#728870" d="m272.23209 147.43845 254.4885 21.23069c1.57209.16498 1.84312 1.09167.60768 2.07777l-115.1997 116.07084c-1.23543.9861-3.49565 1.64715-5.06775 1.48216l-282.1974-26.99907c-1.57209-.16498-1.84311-1.09167-.60768-2.07777l142.9086-110.30246c1.23544-.9861 3.49565-1.64714 5.06775-1.48216z" color="#000" overflow="visible" style="marker:none"/>
    <path id="b" fill="#f2f0e9" stroke="#bec1c0" stroke-linecap="round" stroke-linejoin="round" stroke-width="1.17686486" d="m390.87464 268.18833 126.9941-127.59071c-6.13271 20.6943-6.88923 27.3932 1.57709 32.16792l-112.3284 111.61557-16.24279-16.19278z" color="#000" overflow="visible" style="marker:none"/>
    <path id="c" fill="#88a086" d="m271.68264 114.99287 254.4885 21.23069c1.57209.16498 1.84312 1.09167.60768 2.07777l-115.1997 116.07084c-1.23543.9861-1.92433 1.90904-3.49643 1.74405l-283.76872-27.26096c-1.57209-.16498-1.84311-1.09167-.60768-2.07777l142.9086-110.30246c1.23544-.9861 3.49565-1.64714 5.06775-1.48216z" color="#000" overflow="visible" style="marker:none"/>
    <path id="d" fill="#82a982" d="m98.264089 220.20621 285.210881.55194c1.51702 0 2.01586.6313 2.01586 2.14832-2.77385 10.045-11.08913 21.44169-.96095 28.67993 0 1.51702-1.22129 2.7383-2.73831 2.7383H97.702053c-1.517023 0-2.738308-1.22128-2.738308-2.7383-7.702007-5.58709-4.63275-16.56467 0-28.3247 0-1.51702 1.783321-3.05549 3.300344-3.05549z" color="#000" overflow="visible" style="marker:none"/>
    <path id="e" fill="none" stroke="#6e896e" stroke-width="1.88298404" d="m121.84998 232.74517 279.25496 27.40699"/>
    <path id="f" fill="none" stroke="#7d957d" stroke-width="1.88298404" d="m127.03508 259.41142 279.25496 27.40699"/>
    <path id="g" fill="none" stroke="#9d9d9d" stroke-width=".23537301" d="m413.52016 257.01024 97.16021-97.94587m-98.86248 105.27871 97.16021-97.94587m-96.37455 102.65985 97.16021-97.94587m-93.2319 99.77908 97.16021-97.94587"/>
    <path id="h" fill="#649264" d="m277.56785 115.87876 249.54572 21.55629c8.3592 1.68136 6.64123 30.30381-.0512 31.89932L280.85184 149.7268c-1.5102-.14379-2.86356-1.47306-3.03446-2.98042-8.29672-6.28156-6.47792-16.89834-3.19081-28.1444-.1709-1.50736 1.43108-2.86701 2.94128-2.72322z" color="#000" overflow="visible" style="marker:none"/>
    <path id="i" fill="#f2f0e9" stroke="#bec1c0" stroke-linecap="round" stroke-linejoin="round" stroke-width="1.10845613" d="m130.41748 227.6355 278.34271 28.39989c8.36431 15.59683 2.15209 20.71008-1.26852 27.97353l-278.61575-26.07648c8.64191-10.22795 9.58407-18.43338 1.54156-30.29694z" color="#000" overflow="visible" style="marker:none"/>
    <path id="j" fill="#f2f0e9" stroke="#bec1c0" stroke-linecap="round" stroke-linejoin="round" stroke-width="1.1084559" d="m407.69667 255.24831 114.05408-113.78802c6.00909 9.43592 6.8943 13.14497 1.14575 27.85458L407.11743 284.38111c8.68061-12.32248 6.78947-21.39212.57924-29.1328z" color="#000" overflow="visible" style="marker:none"/>
    <path id="k" fill="none" stroke="#9d9d9d" stroke-width=".22169122" d="m413.52016 257.01024 97.16021-97.94587m-91.5298 97.94603 97.16021-97.94587m-95.08055 102.22852 97.16021-97.94587m-96.68257 103.22975 97.16021-97.94587M142.08385 237.8716l260.5348 22.4326m-257.73114-16.6096 255.79013 22.86394m-258.37813-17.68792 258.80947 24.15793M138.4175 255.34063l261.8288 23.29527"/>
    <path id="l" fill="#7288a1" d="m272.23209 147.43845 254.4885 21.23069c1.57209.16498 1.84312 1.09167.60768 2.07777l-115.1997 116.07084c-1.23543.9861-3.49565 1.64715-5.06775 1.48216l-282.1974-26.99907c-1.57209-.16498-1.84311-1.09167-.60768-2.07777l142.9086-110.30246c1.23544-.9861 3.49565-1.64714 5.06775-1.48216z" color="#000" overflow="visible" style="marker:none"/>
    <path id="m" fill="#88a0c0" d="m271.68264 114.99287 254.4885 21.23069c1.57209.16498 1.84312 1.09167.60768 2.07777l-115.1997 116.07084c-1.23543.9861-1.92433 1.90904-3.49643 1.74405l-283.76872-27.26096c-1.57209-.16498-1.84311-1.09167-.60768-2.07777l142.9086-110.30246c1.23544-.9861 3.49565-1.64714 5.06775-1.48216z" color="#000" overflow="visible" style="marker:none"/>
    <path id="n" fill="#82a9d6" d="m98.264089 220.20621 285.210881.55194c1.51702 0 2.01586.6313 2.01586 2.14832-2.77385 10.045-11.08913 21.44169-.96095 28.67993 0 1.51702-1.22129 2.7383-2.73831 2.7383H97.702053c-1.517023 0-2.738308-1.22128-2.738308-2.7383-7.702007-5.58709-4.63275-16.56467 0-28.3247 0-1.51702 1.783321-3.05549 3.300344-3.05549z" color="#000" overflow="visible" style="marker:none"/>
    <path id="o" fill="#727070" d="m272.23209 147.43845 254.4885 21.23069c1.57209.16498 1.84312 1.09167.60768 2.07777l-115.1997 116.07084c-1.23543.9861-3.49565 1.64715-5.06775 1.48216l-282.1974-26.99907c-1.57209-.16498-1.84311-1.09167-.60768-2.07777l142.9086-110.30246c1.23544-.9861 3.49565-1.64714 5.06775-1.48216z" color="#000" overflow="visible" style="marker:none"/>
    <path id="p" fill="#494847" d="m271.68264 114.99287 254.4885 21.23069c1.57209.16498 1.84312 1.09167.60768 2.07777l-115.1997 116.07084c-1.23543.9861-1.92433 1.90904-3.49643 1.74405l-283.76872-27.26096c-1.57209-.16498-1.84311-1.09167-.60768-2.07777l142.9086-110.30246c1.23544-.9861 3.49565-1.64714 5.06775-1.48216z" color="#000" overflow="visible" style="marker:none"/>
    <path id="q" fill="#626363" d="m98.264089 220.20621 285.210881.55194c1.51702 0 2.01586.6313 2.01586 2.14832-2.77385 10.045-11.08913 21.44169-.96095 28.67993 0 1.51702-1.22129 2.7383-2.73831 2.7383H97.702053c-1.517023 0-2.738308-1.22128-2.738308-2.7383-7.702007-5.58709-4.63275-16.56467 0-28.3247 0-1.51702 1.783321-3.05549 3.300344-3.05549z" color="#000" overflow="visible" style="marker:none"/>
  </defs>
  <g transform="translate(-118.07119 -407.25236)">
    <g transform="translate(205.79714 743.30814) scale(.42486)">
      <use xlink:href="#a" color="#000" overflow="visible" style="marker:none"/>
      <use xlink:href="#b" stroke-linecap="round" stroke-linejoin="round" stroke-width="1.17686486" color="#000" overflow="visible" style="marker:none"/>
      <use xlink:href="#c" color="#000" overflow="visible" style="marker:none"/>
      <use xlink:href="#d" color="#000" overflow="visible" style="marker:none" transform="matrix(.9955 .09479 .11265 .99363 0 0)"/>
      <use xlink:href="#e" stroke-width="1.88298404"/>
      <use xlink:href="#f" stroke-width="1.88298404"/>
      <use xlink:href="#g" stroke-width=".23537301"/>
    </g>
    <g transform="translate(191.88708 724.72451) scale(.45108)">
      <use xlink:href="#h" color="#000" overflow="visible" style="marker:none"/>
      <path fill="#6b6b6b" d="m272.23209 147.43845 254.4885 21.23069c1.57209.16498 1.84312 1.09167.60768 2.07777l-115.1997 116.07084c-1.23543.9861-3.49565 1.64715-5.06775 1.48216l-282.1974-26.99907c-1.57209-.16498-1.84311-1.09167-.60768-2.07777l142.9086-110.30246c1.23544-.9861 3.49565-1.64714 5.06775-1.48216z" color="#000" overflow="visible" style="marker:none"/>
      <use xlink:href="#i" stroke-linecap="round" stroke-linejoin="round" stroke-width="1.10845613" color="#000" overflow="visible" style="marker:none"/>
      <use xlink:href="#j" stroke-linecap="round" stroke-linejoin="round" stroke-width="1.1084559" color="#000" overflow="visible" style="marker:none"/>
      <path fill="#b5b5b5" d="m271.68264 114.99287 254.4885 21.23069c1.57209.16498 1.84312 1.09167.60768 2.07777l-115.1997 116.07084c-1.23543.9861-1.92433 1.90904-3.49643 1.74405l-283.76872-27.26096c-1.57209-.16498-1.84311-1.09167-.60768-2.07777l142.9086-110.30246c1.23544-.9861 3.49565-1.64714 5.06775-1.48216z" color="#000" overflow="visible" style="marker:none"/>
      <use xlink:href="#k" stroke-width=".22169122"/>
    </g>
    <g transform="translate(179.94839 694.57088) scale(.48798)">
      <path fill="#a78870" d="m272.23209 147.43845 254.4885 21.23069c1.57209.16498 1.84312 1.09167.60768 2.07777l-115.1997 116.07084c-1.23543.9861-3.49565 1.64715-5.06775 1.48216l-282.1974-26.99907c-1.57209-.16498-1.84311-1.09167-.60768-2.07777l142.9086-110.30246c1.23544-.9861 3.49565-1.64714 5.06775-1.48216z" color="#000" overflow="visible" style="marker:none"/>
      <use xlink:href="#b" stroke-linecap="round" stroke-linejoin="round" stroke-width="1.0246259" color="#000" overflow="visible" style="marker:none"/>
      <path fill="#c3a086" d="m271.68264 114.99287 254.4885 21.23069c1.57209.16498 1.84312 1.09167.60768 2.07777l-115.1997 116.07084c-1.23543.9861-1.92433 1.90904-3.49643 1.74405l-283.76872-27.26096c-1.57209-.16498-1.84311-1.09167-.60768-2.07777l142.9086-110.30246c1.23544-.9861 3.49565-1.64714 5.06775-1.48216z" color="#000" overflow="visible" style="marker:none"/>
      <path fill="#d6a982" d="m98.264089 220.20621 285.210881.55194c1.51702 0 2.01586.6313 2.01586 2.14832-2.77385 10.045-11.08913 21.44169-.96095 28.67993 0 1.51702-1.22129 2.7383-2.73831 2.7383H97.702053c-1.517023 0-2.738308-1.22128-2.738308-2.7383-7.702007-5.58709-4.63275-16.56467 0-28.3247 0-1.51702 1.783321-3.05549 3.300344-3.05549z" color="#000" overflow="visible" style="marker:none" transform="matrix(.9955 .09479 .11265 .99363 0 0)"/>
      <use xlink:href="#e" stroke-width="1.63940156"/>
      <use xlink:href="#f" stroke-width="1.63940156"/>
      <use xlink:href="#g" stroke-width=".20492519"/>
    </g>
    <g transform="matrix(.51979 -.00159 -.07628 .51155 180.18272 671.9949)">
      <use xlink:href="#l" color="#000" overflow="visible" style="marker:none"/>
      <use xlink:href="#b" stroke-linecap="round" stroke-linejoin="round" stroke-width=".96986824" color="#000" overflow="visible" style="marker:none"/>
      <use xlink:href="#m" color="#000" overflow="visible" style="marker:none"/>
      <use xlink:href="#n" color="#000" overflow="visible" style="marker:none" transform="matrix(.9955 .09479 .11265 .99363 0 0)"/>
      <use xlink:href="#e" stroke-width="1.55178928"/>
      <use xlink:href="#f" stroke-width="1.55178928"/>
      <use xlink:href="#g" stroke-width=".19397366"/>
    </g>
    <g transform="translate(137.68081 636.76214) scale(.58479)">
      <use xlink:href="#h" color="#000" overflow="visible" style="marker:none"/>
      <use xlink:href="#a" color="#000" overflow="visible" style="marker:none"/>
      <use xlink:href="#i" stroke-linecap="round" stroke-linejoin="round" stroke-width=".85500824" color="#000" overflow="visible" style="marker:none"/>
      <use xlink:href="#j" stroke-linecap="round" stroke-linejoin="round" stroke-width=".85500818" color="#000" overflow="visible" style="marker:none"/>
      <use xlink:href="#c" color="#000" overflow="visible" style="marker:none"/>
      <use xlink:href="#k" stroke-width=".17100166"/>
    </g>
    <g transform="matrix(.54668 -.00086 .04087 .51548 143.39767 631.97247)">
      <path fill="#723a70" d="m272.23209 147.43845 254.4885 21.23069c1.57209.16498 1.84312 1.09167.60768 2.07777l-115.1997 116.07084c-1.23543.9861-3.49565 1.64715-5.06775 1.48216l-282.1974-26.99907c-1.57209-.16498-1.84311-1.09167-.60768-2.07777l142.9086-110.30246c1.23544-.9861 3.49565-1.64714 5.06775-1.48216z" color="#000" overflow="visible" style="marker:none"/>
      <use xlink:href="#b" stroke-linecap="round" stroke-linejoin="round" stroke-width=".9418239" color="#000" overflow="visible" style="marker:none"/>
      <path fill="#885386" d="m271.68264 114.99287 254.4885 21.23069c1.57209.16498 1.84312 1.09167.60768 2.07777l-115.1997 116.07084c-1.23543.9861-1.92433 1.90904-3.49643 1.74405l-283.76872-27.26096c-1.57209-.16498-1.84311-1.09167-.60768-2.07777l142.9086-110.30246c1.23544-.9861 3.49565-1.64714 5.06775-1.48216z" color="#000" overflow="visible" style="marker:none"/>
      <path fill="#826e82" d="m98.264089 220.20621 285.210881.55194c1.51702 0 2.01586.6313 2.01586 2.14832-2.77385 10.045-11.08913 21.44169-.96095 28.67993 0 1.51702-1.22129 2.7383-2.73831 2.7383H97.702053c-1.517023 0-2.738308-1.22128-2.738308-2.7383-7.702007-5.58709-4.63275-16.56467 0-28.3247 0-1.51702 1.783321-3.05549 3.300344-3.05549z" color="#000" overflow="visible" style="marker:none" transform="matrix(.9955 .09479 .11265 .99363 0 0)"/>
      <use xlink:href="#e" stroke-width="1.50691843"/>
      <use xlink:href="#f" stroke-width="1.50691843"/>
      <use xlink:href="#g" stroke-width=".1883648"/>
    </g>
    <g transform="matrix(.6485 0 0 .57215 128.79088 597.05458)">
      <use xlink:href="#a" color="#000" overflow="visible" style="marker:none"/>
      <use xlink:href="#b" stroke-linecap="round" stroke-linejoin="round" stroke-width=".82084537" color="#000" overflow="visible" style="marker:none"/>
      <use xlink:href="#c" color="#000" overflow="visible" style="marker:none"/>
      <use xlink:href="#d" color="#000" overflow="visible" style="marker:none" transform="matrix(.9955 .09479 .11265 .99363 0 0)"/>
      <use xlink:href="#e" stroke-width="1.3133527"/>
      <use xlink:href="#f" stroke-width="1.3133527"/>
      <use xlink:href="#g" stroke-width=".16416909"/>
    </g>
    <g transform="translate(123.29466 563.56727) scale(.63528)">
      <use xlink:href="#o" color="#000" overflow="visible" style="marker:none"/>
      <use xlink:href="#b" stroke-linecap="round" stroke-linejoin="round" stroke-width=".78706002" color="#000" overflow="visible" style="marker:none"/>
      <use xlink:href="#p" color="#000" overflow="visible" style="marker:none"/>
      <use xlink:href="#q" color="#000" overflow="visible" style="marker:none" transform="matrix(.9955 .09479 .11265 .99363 0 0)"/>
      <use xlink:href="#e" stroke-width="1.25929618"/>
      <use xlink:href="#f" stroke-width="1.25929618"/>
      <use xlink:href="#g" stroke-width=".15741202"/>
    </g>
    <g transform="matrix(.75014 0 0 .71146 81.315805 525.81893)">
      <path fill="#9b9264" d="m277.56785 115.87876 249.54572 21.55629c8.3592 1.68136 6.64123 30.30381-.0512 31.89932L280.85184 149.7268c-1.5102-.14379-2.86356-1.47306-3.03446-2.98042-8.29672-6.28156-6.47792-16.89834-3.19081-28.1444-.1709-1.50736 1.43108-2.86701 2.94128-2.72322z" color="#000" overflow="visible" style="marker:none"/>
      <path fill="#a8a770" d="m272.23209 147.43845 254.4885 21.23069c1.57209.16498 1.84312 1.09167.60768 2.07777l-115.1997 116.07084c-1.23543.9861-3.49565 1.64715-5.06775 1.48216l-282.1974-26.99907c-1.57209-.16498-1.84311-1.09167-.60768-2.07777l142.9086-110.30246c1.23544-.9861 3.49565-1.64714 5.06775-1.48216z" color="#000" overflow="visible" style="marker:none"/>
      <use xlink:href="#i" stroke-linecap="round" stroke-linejoin="round" stroke-width=".68441999" color="#000" overflow="visible" style="marker:none"/>
      <use xlink:href="#j" stroke-linecap="round" stroke-linejoin="round" stroke-width=".68441993" color="#000" overflow="visible" style="marker:none"/>
      <path fill="#c8c886" d="m271.68264 114.99287 254.4885 21.23069c1.57209.16498 1.84312 1.09167.60768 2.07777l-115.1997 116.07084c-1.23543.9861-1.92433 1.90904-3.49643 1.74405l-283.76872-27.26096c-1.57209-.16498-1.84311-1.09167-.60768-2.07777l142.9086-110.30246c1.23544-.9861 3.49565-1.64714 5.06775-1.48216z" color="#000" overflow="visible" style="marker:none"/>
      <use xlink:href="#k" stroke-width=".136884"/>
    </g>
    <g transform="matrix(.73306 -.02453 .0612 .72193 75.346427 510.0382)">
      <use xlink:href="#h" color="#000" overflow="visible" style="marker:none"/>
      <use xlink:href="#a" color="#000" overflow="visible" style="marker:none"/>
      <use xlink:href="#i" stroke-linecap="round" stroke-linejoin="round" stroke-width=".68633664" color="#000" overflow="visible" style="marker:none"/>
      <use xlink:href="#j" stroke-linecap="round" stroke-linejoin="round" stroke-width=".68633664" color="#000" overflow="visible" style="marker:none"/>
      <use xlink:href="#c" color="#000" overflow="visible" style="marker:none"/>
      <use xlink:href="#k" stroke-width=".13726732"/>
    </g>
    <g transform="matrix(.8088 -.00247 -.11869 .79597 90.449062 455.95739)">
      <use xlink:href="#l" color="#000" overflow="visible" style="marker:none"/>
      <use xlink:href="#b" stroke-linecap="round" stroke-linejoin="round" stroke-width=".62330669" color="#000" overflow="visible" style="marker:none"/>
      <use xlink:href="#m" color="#000" overflow="visible" style="marker:none"/>
      <use xlink:href="#n" color="#000" overflow="visible" style="marker:none" transform="matrix(.9955 .09479 .11265 .99363 0 0)"/>
      <use xlink:href="#e" stroke-width=".99729079"/>
      <use xlink:href="#f" stroke-width=".99729079"/>
      <use xlink:href="#g" stroke-width=".12466135"/>
    </g>
    <g transform="matrix(.85826 0 0 .84358 70.422434 414.44609)">
      <use xlink:href="#o" color="#000" overflow="visible" style="marker:none"/>
      <use xlink:href="#b" stroke-linecap="round" stroke-linejoin="round" stroke-width=".5876199" color="#000" overflow="visible" style="marker:none"/>
      <use xlink:href="#p" color="#000" overflow="visible" style="marker:none"/>
      <use xlink:href="#q" color="#000" overflow="visible" style="marker:none" transform="matrix(.9955 .09479 .11265 .99363 0 0)"/>
      <use xlink:href="#e" stroke-width=".94019198"/>
      <use xlink:href="#f" stroke-width=".94019198"/>
      <use xlink:href="#g" stroke-width=".117524"/>
    </g>
    <g transform="translate(3.9817554 344.57456)">
      <use xlink:href="#h" color="#000" overflow="visible" style="marker:none"/>
      <use xlink:href="#a" color="#000" overflow="visible" style="marker:none"/>
      <use xlink:href="#i" stroke-linecap="round" stroke-linejoin="round" stroke-width=".5" color="#000" overflow="visible" style="marker:none"/>
      <use xlink:href="#j" stroke-linecap="round" stroke-linejoin="round" stroke-width=".49999997" color="#000" overflow="visible" style="marker:none"/>
      <use xlink:href="#c" color="#000" overflow="visible" style="marker:none"/>
      <use xlink:href="#k" stroke-width=".1"/>
    </g>
    <g transform="translate(-2.3310962 288.86357) scale(1.02976)">
      <use xlink:href="#a" color="#000" overflow="visible" style="marker:none"/>
      <use xlink:href="#b" stroke-linecap="round" stroke-linejoin="round" stroke-width=".48555115" color="#000" overflow="visible" style="marker:none"/>
      <use xlink:href="#c" color="#000" overflow="visible" style="marker:none"/>
      <use xlink:href="#d" color="#000" overflow="visible" style="marker:none" transform="matrix(.9955 .09479 .11265 .99363 0 0)"/>
      <use xlink:href="#e" stroke-width=".77688187"/>
      <use xlink:href="#f" stroke-width=".77688187"/>
      <use xlink:href="#g" stroke-width=".09711023"/>
    </g>
  </g>
</svg>