<?xml version="1.0" encoding="UTF-8" standalone="no"?>
<svg
   xmlns:dc="http://purl.org/dc/elements/1.1/"
   xmlns:cc="http://creativecommons.org/ns#"
   xmlns:rdf="http://www.w3.org/1999/02/22-rdf-syntax-ns#"
   xmlns:svg="http://www.w3.org/2000/svg"
   xmlns="http://www.w3.org/2000/svg"
   xmlns:xlink="http://www.w3.org/1999/xlink"
   xmlns:sodipodi="http://sodipodi.sourceforge.net/DTD/sodipodi-0.dtd"
   xmlns:inkscape="http://www.inkscape.org/namespaces/inkscape"
   width="800"
   height="600"
   version="1.1">
  <metadata
     id="metadata155">
    <rdf:RDF>
      <cc:Work
         rdf:about="">
        <dc:format>image/svg+xml</dc:format>
        <dc:type
           rdf:resource="http://purl.org/dc/dcmitype/StillImage" />
        <dc:title></dc:title>
      </cc:Work>
    </rdf:RDF>
  </metadata>
  <defs
     id="defs153">
    <linearGradient
       id="linear-gradient"
       x1="5057.76"
       y1="390"
       x2="5074.96"
       y2="371.87"
       gradientTransform="translate(5323.74 555.45) rotate(180)"
       gradientUnits="userSpaceOnUse">
      <stop
         offset="0"
         stop-opacity="0.9"
         id="stop277" />
      <stop
         offset="0.79"
         stop-opacity="0"
         id="stop279" />
    </linearGradient>
    <linearGradient
       id="linear-gradient-2"
       x1="4253.57"
       y1="-7000.44"
       x2="4270.77"
       y2="-7018.57"
       gradientTransform="rotate(-90,5885.665,-1432.875)"
       xlink:href="#linear-gradient" />
    <linearGradient
       id="linear-gradient-3"
       x1="-2321.96"
       y1="1146.76"
       x2="-2304.76"
       y2="1128.63"
       gradientTransform="rotate(90,-577.92,1959.25)"
       xlink:href="#linear-gradient" />
    <linearGradient
       id="linear-gradient-4"
       x1="-3095.19"
       y1="-6256.18"
       x2="-3077.99"
       y2="-6274.31"
       gradientTransform="translate(3381.84,6505.21)"
       xlink:href="#linear-gradient" />
    <linearGradient
       inkscape:collect="always"
       xlink:href="#linear-gradient"
       id="linearGradient333"
       gradientUnits="userSpaceOnUse"
       gradientTransform="rotate(180,2661.87,277.725)"
       x1="5057.76"
       y1="390"
       x2="5074.96"
       y2="371.87" />
  </defs>
  <sodipodi:namedview
     pagecolor="#ffffff"
     bordercolor="#666666"
     borderopacity="1"
     objecttolerance="10"
     gridtolerance="10"
     guidetolerance="10"
     inkscape:pageopacity="0"
     inkscape:pageshadow="2"
     inkscape:window-width="2560"
     inkscape:window-height="1017"
     id="namedview151"
     showgrid="false"
     inkscape:zoom="0.92100658"
     inkscape:cx="359.55753"
     inkscape:cy="261.96356"
     inkscape:window-x="1912"
     inkscape:window-y="-8"
     inkscape:window-maximized="1"
     inkscape:current-layer="svg149" />
  <g
     id="g8"
     style="fill:#e9c6af">
    <title
       id="title2">background</title>
    <rect
       fill="#fff"
       id="canvas_background"
       height="602"
       width="802"
       y="-1"
       x="-1"
       style="fill:#e9c6af" />
    <g
       display="none"
       overflow="visible"
       y="0"
       x="0"
       height="100%"
       width="100%"
       id="canvasGrid"
       style="fill:#e9c6af">
      <rect
         fill="url(#gridpattern)"
         stroke-width="0"
         y="0"
         x="0"
         height="100%"
         width="100%"
         id="rect5"
         style="fill:#e9c6af" />
    </g>
  </g>
  <g
     id="g147"
     transform="matrix(3.4762457,0,0,3.4762457,-100.45333,-205.09152)">
    <title
       id="title10">Layer 1</title>
    <defs
       id="defs38">
      <path
         id="svg_54"
         d="m 317.9,236.25 c -0.32,2.97 -1.88,5.76 -2.15,8.73 -0.09,1.1 1,2.06 1.05,3.2 0.05,1.33 -1.01,2.52 -0.87,3.84 0.28,2.01 1.78,3.75 2.15,5.72 0.41,2.51 0,5.12 0.23,7.63 0.68,7.54 1.19,15.09 2.56,22.54 0.32,1.83 2.19,3.06 2.56,4.89 0.18,1.05 -1.19,1.92 -1.05,2.97 0.32,2.24 1.55,4.25 2.33,6.36 -5.85,0.68 -12.94,5.21 -21.03,12.93 -1.05,-2.88 -1.69,-5.99 -3.2,-8.68 -0.96,-1.74 -4.07,-3.39 -3.84,-4.67 0.46,-2.51 2.24,-5.02 1.51,-7.45 -0.96,-3.2 -5.44,-4.61 -6.17,-7.86 -1.47,-6.49 0.45,-13.35 0,-19.98 -0.32,-4.75 -2.11,-9.28 -2.33,-14.03 -0.05,-1.37 0.68,-3.61 0.64,-4.98 -0.1,-2.84 -1.33,-4.3 -1.06,-7.14 0.19,-2.1 1.47,-3.33 1.83,-5.44 0.28,-1.55 -0.41,-3.06 -0.09,-4.57 0.55,-2.65 1.42,-5.39 2.65,-7.81 7.45,2.69 16.05,5.94 23.59,8.59 0,0 0,0 0,0 0.58,2.32 0.81,4.05 0.69,5.21 z" />
      <path
         id="svg_53"
         d="m 317.9,236.25 c -0.32,2.97 -1.88,5.76 -2.15,8.73 -0.09,1.1 1,2.06 1.05,3.2 0.05,1.33 -1.01,2.52 -0.87,3.84 0.28,2.01 1.78,3.75 2.15,5.72 0.41,2.51 0,5.12 0.23,7.63 0.68,7.54 1.19,15.09 2.56,22.54 0.32,1.83 2.19,3.06 2.56,4.89 0.18,1.05 -1.19,1.92 -1.05,2.97 0.32,2.24 1.55,4.25 2.33,6.36 -0.55,0.04 -1.05,0.13 -1.6,0.27 -1.56,-2.24 -3.61,-5.44 -4.12,-5.58 -1.41,-0.36 -2.88,-0.36 -4.34,-0.41 -4.16,-0.09 -5.07,0.09 -8.68,2.2 -6.45,3.74 -6.08,0.54 -3.52,-1.79 8.32,-7.59 -4.35,-2.69 -4.48,-6.76 0,-0.41 6.08,0.23 6.81,0.09 8.77,-1.28 7.91,-1.33 11.88,-10.2 2.88,-6.49 -1.46,-13.76 -3.47,-19.74 -1.37,-4.07 -3.84,-6.08 -7,-8.55 -1.32,-1.01 -5.44,-3.61 -3.29,-4.21 8.96,-2.6 -1.83,-3.79 -4.57,-2.74 -9.6,3.61 -2.01,-2.29 3.11,-3.89 4.34,-1.37 -6.26,-4.29 -6.67,-4.43 -5.08,-1.65 0.45,-0.96 1.73,-0.96 1.92,0 6.17,1.92 7.23,2.15 7.17,1.55 -2.29,-4.94 -3.34,-5.63 -2.52,-1.69 -5.94,-4.93 -7.86,-7.08 0.32,-0.78 0.68,-1.56 1.05,-2.29 7.49,2.56 16.09,5.81 23.63,8.46 0,0 0,0 0,0 0.58,2.32 0.81,4.05 0.69,5.21 z" />
      <path
         id="svg_52"
         d="m 433.01,228.85 c 0.22,1.23 0,2.56 0.22,3.84 0.46,2.56 1.56,5.02 1.92,7.63 0.23,1.55 -0.13,3.11 -0.22,4.66 0.91,7.73 1.96,15.41 2.78,23.13 0.37,3.66 0.96,7.36 0.87,11.02 -0.04,1.01 -1.51,1.78 -1.28,2.79 0.37,1.46 2.47,2.15 2.79,3.61 0.41,2.01 -0.41,4.12 -0.64,6.17 4.39,5.76 14.08,9.1 21.44,2.33 -0.41,-2.14 -0.87,-4.25 -1.28,-6.35 0.96,-1.14 2.42,-2.01 2.97,-3.43 0.46,-1.19 -0.55,-2.6 -0.23,-3.84 0.6,-2.06 3.16,-3.56 2.98,-5.71 -1.01,-12.89 -4.76,-25.42 -6.36,-38.22 -0.27,-2.19 0.73,-4.39 0.64,-6.58 -0.04,-1.24 -0.91,-2.38 -1.05,-3.61 -0.59,-4.94 -0.78,-9.97 -1.19,-14.95 -8.82,2.88 -17.55,5.76 -26.28,8.64 0,0 0,0 0,0 0.94,3.9 1.58,6.85 1.92,8.87 z" />
      <path
         id="svg_51"
         d="m 460.85,294.03 c -0.42,-2.14 -0.87,-4.25 -1.28,-6.35 0.96,-1.14 2.42,-2.01 2.97,-3.43 0.45,-1.19 -0.55,-2.6 -0.23,-3.84 0.59,-2.06 3.15,-3.56 2.97,-5.71 -1.01,-12.89 -4.75,-25.42 -6.35,-38.22 -0.28,-2.19 0.73,-4.39 0.64,-6.58 -0.05,-1.24 -0.92,-2.38 -1.06,-3.61 -0.59,-4.94 -0.77,-9.97 -1.18,-14.95 -2.52,0.82 -22.67,7.44 -25.19,8.27 3.29,4.94 6.72,3.61 15.13,10.7 5.26,4.43 -21.17,-4.34 -2.61,4.07 1.15,0.5 8.78,3.61 6.81,4.39 -6.4,2.56 3.07,2.83 4.12,8.41 1.28,6.72 3.7,23.04 -1.65,28.25 -6.26,6.12 -18.69,5.67 -2.01,6.03 5.99,0.14 -2.79,5.99 -5.76,6.63 -4.34,0.92 6.22,1.1 8.69,4.34 1.14,1.42 2.19,2.61 3.29,3.57 0,0 0,0 0,0 1.22,-0.79 2.12,-1.45 2.7,-1.97 z" />
      <path
         id="svg_50"
         d="m 280.23,215.54 c 10.01,3.25 26.19,18.15 40.36,15.09 2.88,-6.81 4.71,-13.72 9.15,-22.54 3.33,17.69 4.8,35.61 6.17,53.35 -0.14,11.84 -0.28,23.63 -0.41,35.47 31.36,-2.14 62.72,-4.25 94.08,-6.35 -0.87,-9.28 -1.74,-18.51 -2.65,-27.79 -1.56,-19.02 -2.88,-38.04 -2.24,-57.19 1.69,4.71 3.01,9.32 4.06,14.17 13.44,2.15 24.32,-7.77 36.9,-11.84 -6.22,-14.58 -13.99,-26.29 -22.5,-49.05 -3.33,-13.63 -5.16,-22.17 -15.72,-29.76 -11.11,-5.49 -26.1,-7.13 -37.81,-13.17 -9.05,-0.59 -33,1.88 -39.63,4.25 -9.51,6.68 -18.61,11.34 -27.52,15.18 -8.87,3.15 -15.09,15.09 -20.71,30.99 0,0 0,0 0,0 -8.93,21.76 -16.11,38.16 -21.53,49.19 z" />
      <path
         id="svg_49"
         d="m 320.59,230.63 c 1.74,-4.12 3.11,-8.32 4.9,-12.94 -4.3,-0.41 -12.71,-4.39 -14.86,-5.71 -9.56,-5.85 -17.51,-20.8 -16.64,-13.44 0.91,8.09 7.36,16.13 17,28.71 0.92,1.23 1.56,2.37 2.02,3.47 0,0 0,0 0,0 3.41,0.27 5.94,0.24 7.58,-0.09 z m 68.8,-113.05 c 4.26,10.6 -1.32,21.85 -13.71,23.36 -15.68,1.92 -24.55,-6.4 -25.05,-19.2 0,0 0,0 0,0 17.13,-2.5 30.05,-3.89 38.76,-4.16 z m -59.65,90.51 c 2.24,11.7 3.61,23.5 4.71,35.29 26.65,1.6 53.76,-5.25 80.59,-6.26 3.52,-0.14 6.81,-0.78 10.01,-1.78 -0.5,-9.92 -0.68,-19.84 -0.32,-29.81 1.69,4.71 3.02,9.33 4.07,14.17 11.52,1.83 21.17,-5.21 31.63,-9.78 -2.78,-4.25 -6.12,-10.24 -6.72,-13.9 -0.91,-5.48 -10.46,-29.85 -11.52,-27.33 -2.01,4.84 -2.42,39.95 -7.63,41.82 -3.61,1.33 -2.93,-16.64 -2.93,-18.56 0,-9.14 5.58,-45.3 2.98,-38.99 -5.03,12.21 -8,34.51 -11.48,40.14 -3.79,6.17 0,-21.17 1.14,-24.96 2.56,-8.37 -7.31,16.68 -7.31,6.85 0,-12.06 5.76,-24.41 5.76,-34.24 0,-1.73 -16.96,35.43 -17.6,35.57 -8.09,1.97 -16.32,3.2 -24.46,4.66 -0.59,0.09 -0.27,-0.09 -0.64,-0.36 -13.67,-10.93 -7.68,-3.29 -18.69,-18.15 -0.32,-0.41 2.74,18.1 2.74,20.07 0.09,6.58 4.71,25.55 -1.28,24.77 -11.43,-1.46 -19.89,-12.06 -28.07,-20.2 -4.66,-4.66 -7.77,-15.77 -8.69,-22.31 -1,-7.04 -1.73,-14.81 -6.17,-20.39 -5.12,-6.44 8.69,47.64 6.54,50.84 -2.24,3.33 -4.34,-2.52 -4.8,-3.02 -3.11,-3.48 -10.74,-28.16 -12.16,-22.31 -1.6,6.31 13.58,31.13 17.83,43.47 0,0 0,0 0,0 1.03,-2.31 1.86,-4.08 2.47,-5.3 z" />
      <path
         id="svg_48"
         d="m 336.78,126.99 5.94,34.43 -11.15,2.88 -6.5,-33.37 z" />
      <path
         id="svg_47"
         d="m 402.93,164.85 c 1.13,0.07 10.24,0.65 11.38,0.73 0.18,-12.62 1.6,-30.17 3.93,-40.37 -0.75,-0.26 -4.5,-1.57 -11.25,-3.93 -2.43,20.6 -3.79,35.12 -4.06,43.57 z" />
      <path
         id="svg_46"
         d="m 455.41,458.38 c 1.32,10.19 2.69,20.39 4.02,30.58 1.23,14.9 -1.01,23.73 -2.33,34.19 0.41,2.2 0.87,4.39 1.28,6.59 -14.17,-1.6 -29.26,8.59 -41.19,6.99 -0.32,-2.6 -0.46,-5.21 1.05,-7.86 -0.69,-2.47 -1.42,-4.94 -2.15,-7.45 1.24,-3.11 2.33,-6.22 2.56,-9.33 -2.47,-4.39 -4.34,-9.14 -4.25,-15.5 2.06,-8.73 4.07,-17.46 3.84,-27.61 -1.14,-2.97 -2.29,-5.94 -3.38,-8.91 0.55,-7.73 1.14,-15.45 1.69,-23.13 -4.53,-33.65 -8.28,-68.12 -23.77,-91.34 -0.87,-0.23 -1.69,-0.41 -2.56,-0.64 -2.65,5.49 -3.57,10.1 -3.8,14.45 0.41,7.54 -3.79,8.32 -1.05,22.08 1.97,10.88 -2.24,24.77 -3.38,37.16 1.32,23.09 3.24,45.76 10.83,63.73 5.49,10.51 6.68,19.52 4.25,27.2 0.42,3.84 -0.64,7.86 -3.2,12.11 0.6,1.14 1.15,2.24 1.7,3.38 -1.06,2.06 -2.11,4.12 -3.2,6.18 -10.56,-4.12 -14.72,-14.36 -31.64,-12.35 -0.23,-2.19 -0.41,-4.39 -0.64,-6.58 -5.16,-3.34 -8.09,-10.19 -9.55,-19.34 0.27,-10.33 0.55,-20.66 0.87,-30.99 -7.41,-17.14 -13.08,-37.03 -14.22,-64.37 -4.25,-8.87 -5.72,-22.95 -4.89,-41.41 -2.56,-19.25 -5.49,-37.58 -3.43,-66.7 1.23,-9.92 2.42,-19.84 3.61,-29.76 3.11,-31.64 0.73,-61.53 2.33,-91.89 13.99,0.19 38.58,4.44 53.21,4.85 12.44,0.36 14.91,-3.11 26.79,-2.97 4.25,14.85 9.33,56.09 14.04,84.11 0.09,4.53 0.13,9.05 0.22,13.62 1.7,2.24 2.61,4.26 2.75,5.95 -0.14,3.24 -0.28,6.49 -0.41,9.78 3.74,6.58 7.49,13.17 11.24,19.75 -0.04,3.61 -0.14,7.22 -0.23,10.83 0.55,1.28 1.15,2.56 1.69,3.84 0,1.92 0,3.84 0,5.72 1.15,3.7 2.29,7.36 3.43,11.06 6.72,26.06 9.56,50.51 9.65,73.97 0,0 0,0 0,0 -0.79,22.24 -1.39,38.91 -1.78,50.01 z" />
      <path
         id="svg_45"
         d="m 420.62,257.28 c 0.32,0.82 5.99,2.01 -2.56,-9.97 -3.75,-5.25 -4.67,-10.88 -9.74,-17.09 -0.18,-0.23 -18.97,-23.55 -18.97,-16.46 0,1.51 0.73,3.89 1.92,4.98 0,0 0,0 0,0 18.19,21.98 27.98,34.82 29.35,38.54 z m 34.79,200.64 c -1.65,-3.47 -3.94,-8.32 -5.58,-9.65 -2.52,-1.96 3.75,28.07 4.52,31.73 5.22,23.45 -0.86,17.87 0.42,27.2 0.54,3.89 1.73,6.95 3.2,9.46 -0.32,2.15 -0.64,4.3 -0.92,6.49 0.41,2.2 0.87,4.39 1.28,6.59 -12.52,-1.42 -25.87,6.44 -37.03,7.13 3.75,-6.9 22.86,-19.75 22.22,-27.25 -0.27,-3.24 -6.26,1.97 -6.58,2.2 -7.77,4.75 -14.86,16.41 -14.86,10.51 0,-2.1 16.23,-22.17 18.51,-25.6 3.34,-4.89 5.35,-6.72 4.8,-12.07 -0.5,-5.07 -21.8,23.82 -24.04,21.95 -5.81,-4.9 0.09,-11.48 2.97,-16.14 6.86,-10.97 17.46,-22.49 17.46,-35.98 0,-3.56 -3.93,-12.71 -0.13,-8.91 13.25,13.25 -9.01,-38.68 -9.06,-38.81 -0.77,-1.7 -7.04,-15.59 -4.25,-15.46 4.44,0.14 16.23,30.68 18.65,35.3 4.9,9.18 7.04,8.82 8.96,16.04 0,0 0,0 0,0 -0.32,9.16 -0.51,14.25 -0.54,15.27 z m -94.82,61.03 c -0.22,-2.2 -0.41,-4.39 -0.64,-6.58 -5.16,-3.34 -8.09,-10.2 -9.55,-19.34 0.27,-10.33 0.55,-20.66 0.87,-31 -7.41,-17.14 -13.08,-37.02 -14.22,-64.36 -4.25,-8.87 -5.71,-22.95 -4.89,-41.42 -2.01,-15.22 -4.25,-29.85 -4.11,-49.64 2.6,3.84 2.69,5.89 8.5,11.47 8,7.73 -4.71,4.25 -0.73,6.9 10.79,7.09 20.57,11.07 31.36,18.15 10.92,7.18 -6.59,0.55 -6.86,3.16 -0.41,3.97 12.43,6.72 5.53,6.17 -12.25,-0.96 -18.19,-7.59 -26.28,-6.59 -3.98,0.51 7.13,27.57 9.14,31.23 2.24,4.11 4.52,8.23 6.76,12.29 7,12.67 0.1,26.15 13.12,54.86 0.96,2.15 4.21,8 1.83,6.54 -5.67,-3.38 -13.53,-21.72 -19.65,-26.47 -9.83,-7.59 6.67,14.58 6.72,14.67 6.03,9.97 8.22,12.8 16,21.58 5.76,6.54 16.45,23.59 17.05,32.5 0.55,7.55 -0.28,3.52 -9.15,-2.97 -25.32,-18.6 8.51,14.27 10.02,19.98 1.96,7.63 -4.07,2.51 -5.31,1.87 -24.64,-12.38 -4.02,0.05 4.57,6.86 2.98,2.47 0.1,7.64 -2.88,10.2 0,0 0,0 0,0 -8.56,-7.87 -17.63,-11.22 -27.2,-10.06 z m 1.83,-219.06 c 14.54,4.11 25.97,7.77 40.96,10.33 0.87,0.13 29.4,7.04 29.85,8.32 0.92,2.69 -30.44,-3.98 -30.58,-0.69 -0.27,5.94 40.55,12.12 18.84,12.12 -6.95,0 -11.71,0 -17.33,-1.06 -9.65,-1.82 9.23,17.28 12.57,27.16 2.93,8.73 7,14.54 9.1,24.64 2.79,13.3 -12.66,-12.12 -14.77,-16.87 -3.15,-7.13 -14.58,-18.29 -21.71,-21.76 -7.73,-3.79 -12.25,-6.99 -20.98,-10.15 -10.56,-3.84 3.79,-2.33 7.63,-0.64 0.78,0.32 9.1,1.19 1.1,-4.98 -5.03,-3.89 -14.72,-12.16 -20.76,-14.63 -5.3,-2.19 11.66,-1.46 13.35,-0.78 1.97,0.78 15.27,1.88 1.92,-2.69 -7.82,-2.66 -32.78,-16.83 -27.52,-15.46 0,0 0,0 0,0 7.53,3.45 13.64,5.83 18.33,7.14 z m 27.89,-33.97 c -2.56,1.01 -6.45,-4.25 -9.19,-6.63 -3.84,-3.38 -18.83,-27.52 -19.84,-21.39 -1.78,11.11 30.9,52.39 29.3,52.66 -9.51,1.65 -35.61,-33.55 -38.99,-42.15 -2.33,-5.94 -10.79,-20.48 -8,-26.7 2.92,-6.53 -1.46,-23.04 -3.48,-29.71 -0.27,-0.91 -2.92,-13.35 1.01,-9.92 1.33,1.14 35.11,57.65 36.75,61.49 0,0 0,0 0,0 9.09,14.59 13.23,22.05 12.44,22.35 z" />
      <path
         id="svg_44"
         d="m 330.88,165.21 c 0,0.28 0.05,0.6 0.09,0.92 0.05,0.32 0.18,0.59 0.32,0.86 0.23,0.42 0.5,0.69 0.82,0.64 0.69,-0.13 1.33,-0.32 2.02,-0.5 0.36,-0.09 0.68,-0.14 1.05,-0.23 0.03,-0.01 0.2,-0.05 0.5,-0.13 0.08,0.3 0.13,0.47 0.14,0.5 0.27,1.05 0.77,2.33 1.51,3.15 0.45,0.55 1,0.87 1.6,0.78 0,0 0,0 0,0 h 0.04 c 0,0 0,0 0,0 0.46,-0.09 0.64,-0.78 0.69,-1.6 0.04,-1.01 -0.05,-2.19 -0.23,-2.97 0,-0.09 -0.05,-0.18 -0.05,-0.28 0,-0.03 -0.03,-0.18 -0.09,-0.45 0.28,-0.11 0.43,-0.17 0.46,-0.19 0.91,-0.32 1.83,-0.5 2.83,-0.73 0.46,-0.09 0.92,-0.23 1.42,-0.32 0.09,0 0.14,-0.45 0.14,-0.96 0,-0.27 -0.05,-0.59 -0.09,-0.91 -0.05,-0.28 -0.14,-0.55 -0.28,-0.78 -0.14,-0.32 -0.32,-0.59 -0.5,-0.55 -2.15,0.41 -4.3,0.92 -6.4,1.42 -2.06,0.37 -3.98,0.91 -5.67,1.42 0,0 0,0 0,0 -0.21,0.27 -0.32,0.58 -0.32,0.91 z m 0.05,-1.96 c 1.69,-0.51 3.61,-1.01 5.66,-1.51 2.15,-0.51 4.35,-1.01 6.45,-1.42 0.73,-0.14 1.33,0.37 1.69,1.19 0.14,0.32 0.23,0.64 0.32,1 0.09,0.37 0.09,0.74 0.14,1.06 0.04,1 -0.28,1.87 -0.92,2.05 -0.45,0.09 -0.96,0.23 -1.46,0.32 -0.78,0.19 -1.55,0.37 -2.24,0.55 0.14,0.87 0.28,2.01 0.18,3.06 -0.09,1.28 -0.5,2.38 -1.55,2.61 0,0 0,0 0,0 v 0 c 0,0 0,0 0,0 -1.01,0.18 -1.87,-0.32 -2.56,-1.14 -0.73,-0.83 -1.23,-2.01 -1.6,-3.11 -0.05,0.01 -0.49,0.12 -0.55,0.14 -0.68,0.18 -1.37,0.32 -2.1,0.5 -0.82,0.14 -1.51,-0.37 -1.92,-1.14 -0.18,-0.32 -0.32,-0.74 -0.41,-1.1 -0.19,-0.37 -0.23,-0.78 -0.23,-1.14 0,0 0,0 0,0 0.21,-1.13 0.58,-1.77 1.1,-1.92 z" />
      <path
         id="svg_43"
         d="m 342.67,174.22 c 0,-1.56 -1.28,-2.84 -2.83,-2.84 -1.55,0 -2.83,1.28 -2.83,2.84 0,1.6 1.28,2.83 2.83,2.83 0,0 0,0 0,0 1.89,-0.85 2.83,-1.8 2.83,-2.83 z" />
      <path
         id="svg_42"
         d="m 415.86,166.17 c 0.05,0.37 0.09,0.73 0.05,1.14 0,0.37 -0.09,0.78 -0.23,1.15 -0.32,0.82 -0.87,1.41 -1.69,1.37 -0.73,0 -1.37,-0.05 -2.06,-0.14 -0.05,0 -0.45,-0.04 -0.5,-0.04 -0.14,1.05 -0.46,2.28 -1.01,3.15 -0.55,0.91 -1.28,1.51 -2.28,1.51 0,0 0,0 0,0 v 0 c 0,0 0,0 0,0 -1.05,-0.05 -1.6,-1.01 -1.92,-2.24 -0.23,-0.96 -0.28,-2.1 -0.28,-2.93 -0.73,-0.09 -1.46,-0.13 -2.24,-0.18 -0.45,-0.05 -0.96,-0.05 -1.41,-0.09 -0.69,-0.05 -1.1,-0.87 -1.24,-1.83 -0.04,-0.32 -0.04,-0.69 -0.04,-1.05 0,-0.37 0.04,-0.69 0.13,-1.01 0.23,-0.82 0.69,-1.41 1.42,-1.37 2.1,0.05 4.25,0.18 6.35,0.32 1.97,0.18 3.89,0.37 5.63,0.6 0,0 0,0 0,0 0.79,0.51 1.23,1.06 1.32,1.64 z m -1.46,-0.59 c -1.69,-0.23 -3.57,-0.41 -5.53,-0.55 -2.1,-0.14 -4.25,-0.28 -6.31,-0.32 -0.14,0 -0.27,0.27 -0.37,0.59 -0.04,0.23 -0.09,0.55 -0.13,0.78 0,0.27 0,0.59 0.04,0.87 0.05,0.5 0.19,0.91 0.28,0.91 0.5,0.05 0.96,0.05 1.37,0.09 0.96,0.05 1.87,0.1 2.79,0.28 0.03,0 0.18,0.02 0.45,0.04 0,0.31 0,0.47 0,0.51 0,0.09 0,0.18 0,0.27 0,0 0,0 0,0 0,0.78 0.05,1.92 0.28,2.84 0.18,0.77 0.46,1.41 0.91,1.41 0,0 0,0 0,0 0,0 0,0 0,0 0.55,0 1.01,-0.36 1.37,-0.96 0.55,-0.91 0.83,-2.19 0.92,-3.24 0,-0.04 0.02,-0.2 0.04,-0.51 0.33,0.03 0.52,0.05 0.55,0.05 0.37,0.05 0.69,0.05 1.01,0.09 0.68,0.05 1.37,0.09 1.96,0.14 0.28,0 0.51,-0.28 0.69,-0.69 0.09,-0.27 0.14,-0.55 0.14,-0.87 0.04,-0.41 0,-0.68 -0.05,-0.96 0,0 0,0 0,0 -0.15,-0.51 -0.29,-0.77 -0.41,-0.77 z" />
      <path
         id="svg_41"
         d="m 405.12,176.96 c 0.32,1.51 1.83,2.51 3.38,2.15 1.56,-0.32 2.52,-1.83 2.2,-3.38 -0.37,-1.51 -1.88,-2.47 -3.43,-2.15 0,0 0,0 0,0 -1.68,1.22 -2.39,2.34 -2.15,3.38 z" />
      <path
         id="svg_40"
         d="m 333.71,143.54 c 1.97,-0.41 3.89,-0.77 5.95,-1.05 0.77,-0.09 1.32,0.37 1.73,1.19 0.23,0.41 0.37,0.91 0.46,1.46 0.09,0.51 0.14,1.05 0.14,1.56 0,1.09 -0.32,2.01 -1.01,2.24 -1.69,0.5 -3.52,0.96 -5.53,1.37 -2.01,0.41 -4.2,0.87 -6.58,1.32 -0.87,0.19 -1.56,-0.41 -1.97,-1.28 -0.18,-0.36 -0.32,-0.82 -0.45,-1.28 -0.1,-0.45 -0.14,-0.96 -0.14,-1.41 0.04,-1.33 0.46,-2.43 1.46,-2.65 0,0 0,0 0,0 2.65,-0.67 4.63,-1.16 5.94,-1.47 z m -5.66,2.47 c -0.42,0.09 -0.64,0.78 -0.64,1.56 0,0.36 0.04,0.77 0.09,1.18 0.09,0.37 0.23,0.74 0.36,1.06 0.23,0.45 0.55,0.77 0.83,0.68 2.37,-0.46 4.52,-0.87 6.53,-1.32 1.97,-0.42 3.8,-0.87 5.44,-1.33 0.14,-0.05 0.23,-0.59 0.23,-1.23 0,-0.42 -0.04,-0.87 -0.14,-1.33 -0.09,-0.46 -0.22,-0.87 -0.36,-1.19 -0.18,-0.36 -0.41,-0.64 -0.64,-0.59 -2.01,0.32 -3.93,0.68 -5.85,1.09 0,0 0,0 0,0 -2.56,0.61 -4.51,1.09 -5.85,1.42 z" />
      <path
         id="svg_39"
         d="m 409.87,143.82 c -1.92,-0.32 -3.84,-0.64 -5.8,-0.87 -0.23,0 -0.41,0.23 -0.6,0.59 -0.18,0.32 -0.27,0.73 -0.32,1.19 -0.09,0.41 -0.09,0.92 -0.09,1.33 0.05,0.64 0.09,1.14 0.28,1.19 1.6,0.41 3.43,0.77 5.44,1.14 0,0 0,0 0,0 2.05,0.36 4.16,0.68 6.49,1.05 0.32,0.05 0.59,-0.27 0.78,-0.73 0.13,-0.32 0.22,-0.69 0.32,-1.05 0.04,-0.37 0.09,-0.78 0.09,-1.19 -0.09,-0.73 -0.32,-1.37 -0.73,-1.46 0,0 0,0 0,0 -2.63,-0.58 -4.58,-0.98 -5.86,-1.19 z m 6.08,0.13 c 0.96,0.23 1.47,1.28 1.51,2.52 0,0.46 0,0.91 -0.09,1.37 -0.09,0.46 -0.23,0.91 -0.36,1.28 -0.42,0.91 -1.06,1.46 -1.92,1.33 -2.43,-0.37 -4.62,-0.74 -6.54,-1.06 0,0 0,0 0,0 -1.97,-0.36 -3.8,-0.73 -5.49,-1.14 -0.68,-0.18 -1,-1.1 -1.05,-2.19 -0.04,-0.51 0,-1.01 0.09,-1.56 0.09,-0.55 0.23,-1 0.41,-1.46 0.37,-0.78 0.92,-1.28 1.65,-1.19 2.06,0.28 3.98,0.55 5.9,0.92 0,0 0,0 0,0 2.56,0.48 4.52,0.88 5.89,1.18 z" />
      <path
         id="svg_38"
         d="m 409.01,185.6 h 0.22 v 0.23 l 4.26,66.7 0.04,0.27 h -0.27 l -63.32,-0.87 h -0.27 v -0.27 l -0.41,-67.8 v -0.27 h 0.27 z m -59.25,-1.46 0.41,67.33 62.77,0.87 -4.21,-66.19 z" />
      <path
         id="svg_37"
         d="m 409.23,189.07 -0.04,0.51 -59.66,-2.15 v -0.5 z" />
      <path
         id="svg_36"
         d="m 381.85,252.16 -0.5,0.05 -2.38,-67.3 0.55,-0.04 z" />
      <path
         id="svg_35"
         d="m 398.4,205.39 h 0.23 v 0.23 l 2.33,31.23 0.05,0.32 h -0.32 l -19.66,-0.42 0.04,-0.54 19.34,0.41 -2.28,-30.68 -18.2,-0.45 0.05,-0.55 z" />
      <path
         id="svg_34"
         d="m 398.86,211.52 -0.05,0.55 -18.65,-0.6 v -0.54 z" />
      <path
         id="svg_33"
         d="m 412.94,247.68 v 0.5 l -63,-0.64 v -0.5 z" />
      <path
         id="svg_32"
         d="m 428.94,267.25 -0.05,0.54 -97,-3.97 0.04,-0.55 z" />
      <path
         id="svg_31"
         d="m 431.27,282.97 -0.05,0.55 -100.66,-8.59 0.05,-0.55 z" />
      <path
         id="svg_30"
         d="m 386.51,319.73 c 1.42,8.18 2.84,16.36 3.89,25.23 -0.05,0 -0.49,0.04 -0.55,0.05 -1.1,-8.83 -2.51,-17.01 -3.88,-25.19 -2.84,-16.37 -5.67,-32.78 -5.81,-54.27 0.04,0 0.22,0 0.55,0 1.98,25.21 3.91,43.27 5.8,54.18 z" />
      <path
         id="svg_29"
         d="m 390.26,303.86 c -0.91,-7.27 -1.96,-15.45 -2.1,-24.27 0.05,0 0.49,0 0.55,0 0.14,8.78 1.19,16.96 2.1,24.23 1.69,13.25 2.97,23.45 -2.24,28.75 -0.03,-0.03 -0.16,-0.16 -0.41,-0.41 2.5,-10.12 3.2,-19.55 2.1,-28.3 z" />
    </defs>
    <g
       stroke="null"
       id="svg_161">
      <g
         stroke="null"
         transform="matrix(1.0627236,0,0,1.0627236,-2387.3517,-1821.329)"
         id="svg_56">
        <g
           stroke="null"
           id="svg_57">
          <use
             stroke="null"
             x="2025.004"
             y="1637.6418"
             id="svg_58"
             fill="#cccccc"
             xlink:href="#svg_54"
             width="100%"
             height="100%" />
          <g
             stroke="null"
             id="svg_59">
            <use
               stroke="#000000"
               x="2025.004"
               y="1637.6418"
               id="svg_60"
               stroke-opacity="0"
               fill-opacity="0"
               xlink:href="#svg_54"
               width="100%"
               height="100%" />
          </g>
        </g>
        <g
           stroke="null"
           id="svg_61">
          <use
             stroke="null"
             x="2025.004"
             y="1637.6418"
             id="svg_62"
             fill="#999999"
             xlink:href="#svg_53"
             width="100%"
             height="100%" />
          <g
             stroke="null"
             id="svg_63">
            <use
               stroke="#000000"
               x="2025.004"
               y="1637.6418"
               id="svg_64"
               stroke-opacity="0"
               fill-opacity="0"
               xlink:href="#svg_53"
               width="100%"
               height="100%" />
          </g>
        </g>
        <g
           stroke="null"
           id="svg_65">
          <use
             stroke="null"
             x="2025.004"
             y="1637.6418"
             id="svg_66"
             fill="#cccccc"
             xlink:href="#svg_52"
             width="100%"
             height="100%" />
          <g
             stroke="null"
             id="svg_67">
            <use
               stroke="#000000"
               x="2025.004"
               y="1637.6418"
               id="svg_68"
               stroke-opacity="0"
               fill-opacity="0"
               xlink:href="#svg_52"
               width="100%"
               height="100%" />
          </g>
        </g>
        <g
           stroke="null"
           id="svg_69">
          <use
             stroke="null"
             x="2025.004"
             y="1637.6418"
             id="svg_70"
             fill="#999999"
             xlink:href="#svg_51"
             width="100%"
             height="100%" />
          <g
             stroke="null"
             id="svg_71">
            <use
               stroke="#000000"
               x="2025.004"
               y="1637.6418"
               id="svg_72"
               stroke-opacity="0"
               fill-opacity="0"
               xlink:href="#svg_51"
               width="100%"
               height="100%" />
          </g>
        </g>
        <g
           stroke="null"
           id="svg_73">
          <use
             stroke="null"
             x="2025.004"
             y="1637.6418"
             id="svg_74"
             fill="#8c2b32"
             xlink:href="#svg_50"
             width="100%"
             height="100%" />
          <g
             stroke="null"
             id="svg_75">
            <use
               stroke="#000000"
               x="2025.004"
               y="1637.6418"
               id="svg_76"
               stroke-opacity="0"
               fill-opacity="0"
               xlink:href="#svg_50"
               width="100%"
               height="100%" />
          </g>
        </g>
        <g
           stroke="null"
           id="svg_77">
          <use
             stroke="null"
             x="2025.004"
             y="1637.6418"
             id="svg_78"
             fill="#781920"
             xlink:href="#svg_49"
             width="100%"
             height="100%" />
          <g
             stroke="null"
             id="svg_79">
            <use
               stroke="#000000"
               x="2025.004"
               y="1637.6418"
               id="svg_80"
               stroke-opacity="0"
               fill-opacity="0"
               xlink:href="#svg_49"
               width="100%"
               height="100%" />
          </g>
        </g>
        <g
           stroke="null"
           id="svg_81">
          <use
             stroke="null"
             x="2025.004"
             y="1637.6418"
             id="svg_82"
             fill="#333333"
             xlink:href="#svg_48"
             width="100%"
             height="100%" />
          <g
             stroke="null"
             id="svg_83">
            <use
               stroke="#000000"
               x="2025.004"
               y="1637.6418"
               id="svg_84"
               stroke-opacity="0"
               fill-opacity="0"
               xlink:href="#svg_48"
               width="100%"
               height="100%" />
          </g>
        </g>
        <g
           stroke="null"
           id="svg_85">
          <use
             stroke="null"
             x="2025.004"
             y="1637.6418"
             id="svg_86"
             fill="#333333"
             xlink:href="#svg_47"
             width="100%"
             height="100%" />
          <g
             stroke="null"
             id="svg_87">
            <use
               stroke="#000000"
               x="2025.004"
               y="1637.6418"
               id="svg_88"
               stroke-opacity="0"
               fill-opacity="0"
               xlink:href="#svg_47"
               width="100%"
               height="100%" />
          </g>
        </g>
        <g
           stroke="null"
           id="svg_89">
          <use
             stroke="null"
             x="2025.004"
             y="1637.6418"
             id="svg_90"
             fill="#333333"
             xlink:href="#svg_46"
             width="100%"
             height="100%" />
          <g
             stroke="null"
             id="svg_91">
            <use
               stroke="#000000"
               x="2025.004"
               y="1637.6418"
               id="svg_92"
               stroke-opacity="0"
               fill-opacity="0"
               xlink:href="#svg_46"
               width="100%"
               height="100%" />
          </g>
        </g>
        <g
           stroke="null"
           id="svg_93">
          <use
             stroke="null"
             x="2025.004"
             y="1637.6418"
             id="svg_94"
             fill="#1a1a1a"
             xlink:href="#svg_45"
             width="100%"
             height="100%" />
          <g
             stroke="null"
             id="svg_95">
            <use
               stroke="#000000"
               x="2025.004"
               y="1637.6418"
               id="svg_96"
               stroke-opacity="0"
               fill-opacity="0"
               xlink:href="#svg_45"
               width="100%"
               height="100%" />
          </g>
        </g>
        <g
           stroke="null"
           id="svg_97">
          <use
             stroke="null"
             x="2025.004"
             y="1637.6418"
             id="svg_98"
             fill="#ffea96"
             xlink:href="#svg_44"
             width="100%"
             height="100%" />
          <g
             stroke="null"
             id="svg_99">
            <use
               stroke="#000000"
               x="2025.004"
               y="1637.6418"
               id="svg_100"
               stroke-opacity="0"
               fill-opacity="0"
               xlink:href="#svg_44"
               width="100%"
               height="100%" />
          </g>
        </g>
        <g
           stroke="null"
           id="svg_101">
          <use
             stroke="null"
             x="2025.004"
             y="1637.6418"
             id="svg_102"
             fill="#ffea96"
             xlink:href="#svg_43"
             width="100%"
             height="100%" />
          <g
             stroke="null"
             id="svg_103">
            <use
               stroke="#000000"
               x="2025.004"
               y="1637.6418"
               id="svg_104"
               stroke-opacity="0"
               fill-opacity="0"
               xlink:href="#svg_43"
               width="100%"
               height="100%" />
          </g>
        </g>
        <g
           stroke="null"
           id="svg_105">
          <use
             stroke="null"
             x="2025.004"
             y="1637.6418"
             id="svg_106"
             fill="#ffea96"
             xlink:href="#svg_42"
             width="100%"
             height="100%" />
          <g
             stroke="null"
             id="svg_107">
            <use
               stroke="#000000"
               x="2025.004"
               y="1637.6418"
               id="svg_108"
               stroke-opacity="0"
               fill-opacity="0"
               xlink:href="#svg_42"
               width="100%"
               height="100%" />
          </g>
        </g>
        <g
           stroke="null"
           id="svg_109">
          <use
             stroke="null"
             x="2025.004"
             y="1637.6418"
             id="svg_110"
             fill="#ffea96"
             xlink:href="#svg_41"
             width="100%"
             height="100%" />
          <g
             stroke="null"
             id="svg_111">
            <use
               stroke="#000000"
               x="2025.004"
               y="1637.6418"
               id="svg_112"
               stroke-opacity="0"
               fill-opacity="0"
               xlink:href="#svg_41"
               width="100%"
               height="100%" />
          </g>
        </g>
        <g
           stroke="null"
           id="svg_113">
          <use
             stroke="null"
             x="2025.004"
             y="1637.6418"
             id="svg_114"
             fill="#ffea96"
             xlink:href="#svg_40"
             width="100%"
             height="100%" />
          <g
             stroke="null"
             id="svg_115">
            <use
               stroke="#000000"
               x="2025.004"
               y="1637.6418"
               id="svg_116"
               stroke-opacity="0"
               fill-opacity="0"
               xlink:href="#svg_40"
               width="100%"
               height="100%" />
          </g>
        </g>
        <g
           stroke="null"
           id="svg_117">
          <use
             stroke="null"
             x="2025.004"
             y="1637.6418"
             id="svg_118"
             fill="#ffea96"
             xlink:href="#svg_39"
             width="100%"
             height="100%" />
          <g
             stroke="null"
             id="svg_119">
            <use
               stroke="#000000"
               x="2025.004"
               y="1637.6418"
               id="svg_120"
               stroke-opacity="0"
               fill-opacity="0"
               xlink:href="#svg_39"
               width="100%"
               height="100%" />
          </g>
        </g>
        <g
           stroke="null"
           id="svg_121">
          <use
             stroke="null"
             x="2025.004"
             y="1637.6418"
             id="svg_122"
             fill="#ffffff"
             xlink:href="#svg_38"
             width="100%"
             height="100%" />
          <g
             stroke="null"
             id="svg_123">
            <use
               stroke="#000000"
               x="2025.004"
               y="1637.6418"
               id="svg_124"
               stroke-opacity="0"
               fill-opacity="0"
               xlink:href="#svg_38"
               width="100%"
               height="100%" />
          </g>
        </g>
        <g
           stroke="null"
           id="svg_125">
          <use
             stroke="null"
             x="2025.004"
             y="1637.6418"
             id="svg_126"
             fill="#ffffff"
             xlink:href="#svg_37"
             width="100%"
             height="100%" />
          <g
             stroke="null"
             id="svg_127">
            <use
               stroke="#000000"
               x="2025.004"
               y="1637.6418"
               id="svg_128"
               stroke-opacity="0"
               fill-opacity="0"
               xlink:href="#svg_37"
               width="100%"
               height="100%" />
          </g>
        </g>
        <g
           stroke="null"
           id="svg_129">
          <use
             stroke="null"
             x="2025.004"
             y="1637.6418"
             id="svg_130"
             fill="#ffffff"
             xlink:href="#svg_36"
             width="100%"
             height="100%" />
          <g
             stroke="null"
             id="svg_131">
            <use
               stroke="#000000"
               x="2025.004"
               y="1637.6418"
               id="svg_132"
               stroke-opacity="0"
               fill-opacity="0"
               xlink:href="#svg_36"
               width="100%"
               height="100%" />
          </g>
        </g>
        <g
           stroke="null"
           id="svg_133">
          <use
             stroke="null"
             x="2025.004"
             y="1637.6418"
             id="svg_134"
             fill="#ffffff"
             xlink:href="#svg_35"
             width="100%"
             height="100%" />
          <g
             stroke="null"
             id="svg_135">
            <use
               stroke="#000000"
               x="2025.004"
               y="1637.6418"
               id="svg_136"
               stroke-opacity="0"
               fill-opacity="0"
               xlink:href="#svg_35"
               width="100%"
               height="100%" />
          </g>
        </g>
        <g
           stroke="null"
           id="svg_137">
          <use
             stroke="null"
             x="2025.004"
             y="1637.6418"
             id="svg_138"
             fill="#ffffff"
             xlink:href="#svg_34"
             width="100%"
             height="100%" />
          <g
             stroke="null"
             id="svg_139">
            <use
               stroke="#000000"
               x="2025.004"
               y="1637.6418"
               id="svg_140"
               stroke-opacity="0"
               fill-opacity="0"
               xlink:href="#svg_34"
               width="100%"
               height="100%" />
          </g>
        </g>
        <g
           stroke="null"
           id="svg_141">
          <use
             stroke="null"
             x="2025.004"
             y="1637.6418"
             id="svg_142"
             fill="#ffffff"
             xlink:href="#svg_33"
             width="100%"
             height="100%" />
          <g
             stroke="null"
             id="svg_143">
            <use
               stroke="#000000"
               x="2025.004"
               y="1637.6418"
               id="svg_144"
               stroke-opacity="0"
               fill-opacity="0"
               xlink:href="#svg_33"
               width="100%"
               height="100%" />
          </g>
        </g>
        <g
           stroke="null"
           id="svg_145">
          <use
             stroke="null"
             x="2025.004"
             y="1637.6418"
             id="svg_146"
             fill="#ffffff"
             xlink:href="#svg_32"
             width="100%"
             height="100%" />
          <g
             stroke="null"
             id="svg_147">
            <use
               stroke="#000000"
               x="2025.004"
               y="1637.6418"
               id="svg_148"
               stroke-opacity="0"
               fill-opacity="0"
               xlink:href="#svg_32"
               width="100%"
               height="100%" />
          </g>
        </g>
        <g
           stroke="null"
           id="svg_149">
          <use
             stroke="null"
             x="2025.004"
             y="1637.6418"
             id="svg_150"
             fill="#ffffff"
             xlink:href="#svg_31"
             width="100%"
             height="100%" />
          <g
             stroke="null"
             id="svg_151">
            <use
               stroke="#000000"
               x="2025.004"
               y="1637.6418"
               id="svg_152"
               stroke-opacity="0"
               fill-opacity="0"
               xlink:href="#svg_31"
               width="100%"
               height="100%" />
          </g>
        </g>
        <g
           stroke="null"
           id="svg_153">
          <use
             stroke="null"
             x="2025.004"
             y="1637.6418"
             id="svg_154"
             fill="#ffffff"
             xlink:href="#svg_30"
             width="100%"
             height="100%" />
          <g
             stroke="null"
             id="svg_155">
            <use
               stroke="#000000"
               x="2025.004"
               y="1637.6418"
               id="svg_156"
               stroke-opacity="0"
               fill-opacity="0"
               xlink:href="#svg_30"
               width="100%"
               height="100%" />
          </g>
        </g>
        <g
           stroke="null"
           id="svg_157">
          <use
             stroke="null"
             x="2025.004"
             y="1637.6418"
             id="svg_158"
             fill="#ffffff"
             xlink:href="#svg_29"
             width="100%"
             height="100%" />
          <g
             stroke="null"
             id="svg_159">
            <use
               stroke="#000000"
               x="2025.004"
               y="1637.6418"
               id="svg_160"
               stroke-opacity="0"
               fill-opacity="0"
               xlink:href="#svg_29"
               width="100%"
               height="100%" />
          </g>
        </g>
      </g>
    </g>
  </g>
  <g
     id="Uno-Platform-Logo-Reverse"
     style="isolation:isolate"
     transform="matrix(0.19193017,-0.00391338,0.00391338,0.19193017,376.32913,244.48772)">
    <path
       d="m 356,325.37 h -0.1 c -23.89,-0.05 -45.24,-16.61 -71.94,-43.31 l -58,-57.54 18.13,-18.32 58.08,57.59 c 25.74,25.75 40.81,35.77 53.8,35.8 v 0 c 13.12,0 29,-10.56 54.9,-36.44 l 29.65,-30 c 14.93,-14.94 21.51,-28 20.16,-39.87 -1.1,-9.68 -7.48,-20.06 -20.11,-32.68 l -0.27,-0.29 C 426.67,145.82 410,129.65 392.59,120.7 c -3.23,-16.55 -13.83,-29.58 -15.33,-32 31.84,4.68 60.25,31 81.69,53.78 23.34,23.39 48.58,60.08 -0.15,108.81 l -29.64,30 C 402,308.53 380.27,325.37 356,325.37 Z"
       style="fill:#7a67f8"
       id="path289" />
    <path
       d="M 277.66,239.5 332,184.56 c 25.75,-25.75 35.77,-40.83 35.8,-53.81 0.03,-12.98 -10.53,-29 -36.44,-54.94 l -30,-29.65 C 270.83,15.63 252.36,22.6 228.81,46.1 l -0.29,0.28 c -12.9,12.12 -27.11,26.62 -36.4,41.94 -8.63,0.61 -19.76,3.55 -33.45,12.71 7.58,-28.43 31.28,-53.77 52,-73.3 23.39,-23.34 60.08,-48.58 108.81,0.14 l 30,29.65 c 27.25,27.25 44.09,49 44,73.28 0,23.89 -16.6,45.24 -43.31,71.94 L 296,257.65 Z"
       style="fill:#f85977"
       id="path291" />
    <path
       d="m 169.86,324 c -30,-6.37 -56.73,-31.27 -77.14,-53 -10.66,-10.68 -25,-27.22 -27.35,-47.88 -2.28,-20.21 6.71,-40.14 27.49,-60.93 l 29.65,-30 c 27.21,-27.21 48.92,-44 73.18,-44 h 0.1 c 23.89,0 45.24,16.6 71.94,43.3 l 59,58.41 -18.13,18.32 -59,-58.45 C 223.8,124 208.72,114 195.74,114 h -0.05 c -13.11,0 -29,10.56 -54.89,36.44 l -29.65,30 c -14.93,14.94 -21.51,28 -20.16,39.86 1.1,9.68 7.48,20.07 20.1,32.69 l 0.28,0.28 c 13,13.81 28.71,29.13 45.22,38.29 1.41,14.57 10.05,27.61 13.27,32.44 z"
       style="fill:#159bff"
       id="path293" />
    <path
       d="m 285.37,417.14 c -16.12,0 -34.44,-7.42 -54.9,-27.88 l -30,-29.64 C 141.8,300.95 141.67,272.46 199.73,214.4 L 256.67,156.87 275,175 218,232.61 c -25.75,25.75 -35.78,40.83 -35.8,53.81 -0.02,12.98 10.53,29 36.44,54.94 l 30,29.65 c 30.53,30.52 49,23.57 72.55,0.06 l 0.29,-0.28 c 13.84,-13 29.29,-28.95 38.44,-45.51 13.91,-1.18 24.29,-7.05 32.11,-12 -6.69,29.61 -31.29,56 -52.75,76.2 -13.58,13.52 -31.63,27.66 -53.91,27.66 z"
       style="fill:#67e5ad"
       id="path295" />
    <polygon
       points="256.67,156.83 274.99,174.97 261.76,188.34 242.97,170.68 "
       style="mix-blend-mode:multiply;fill:url(#linearGradient333);fill-opacity:0.4"
       id="polygon297" />
    <polygon
       points="326.72,189.91 308.59,208.25 295.22,195 312.87,176.2 "
       style="mix-blend-mode:multiply;fill:url(#linear-gradient-2);fill-opacity:0.4"
       id="polygon299" />
    <polygon
       points="225.95,224.52 244.08,206.2 257.45,219.43 239.79,238.22 "
       style="mix-blend-mode:multiply;fill:url(#linear-gradient-3);fill-opacity:0.4"
       id="polygon301" />
    <polygon
       points="295.95,257.65 277.64,239.51 290.87,226.15 309.66,243.81 "
       style="mix-blend-mode:multiply;fill:url(#linear-gradient-4);fill-opacity:0.4"
       id="polygon303" />
    <path
       d="M 471.46,495 A 80.54,80.54 0 1 0 552,575.49 80.63,80.63 0 0 0 471.46,495 Z m 0,127.82 a 47.28,47.28 0 1 1 47.28,-47.28 47.33,47.33 0 0 1 -47.28,47.23 z M 128.09,500.41 h 33.26 v 75.08 a 80.54,80.54 0 0 1 -161.08,0 v -1 c -0.43,-18.87 -0.23,-46.13 0,-65.66 l 0.1,-8.43 h 33.94 v 75.08 c 0,26.07 20.86,47.28 46.5,47.28 a 47.33,47.33 0 0 0 47.28,-47.28 z m 228.6,94.3 c 0.13,8.59 0.24,16 -0.15,47.44 l -0.1,8.43 h -33.95 v -75.09 c 0,-26.07 -20.86,-47.28 -46.49,-47.28 a 47.33,47.33 0 0 0 -47.28,47.28 v 75.09 h -33.26 v -75.09 a 80.54,80.54 0 0 1 161.08,0 c 0,9.58 0.07,14.51 0.15,19.22 z"
       style="fill:#ffffff"
       id="path305" />
    <path
       d="m 32.33,710.79 q 0,7.25 -4.52,11.08 -4.52,3.83 -12.88,3.83 h -4.08 v 16 H 1.34 v -44.9 h 14.33 q 8.16,0 12.41,3.51 4.25,3.51 4.25,10.48 z m -21.48,7.12 H 14 q 4.39,0 6.57,-1.73 a 6.08,6.08 0 0 0 2.18,-5 6.21,6.21 0 0 0 -1.83,-4.94 c -1.22,-1.07 -3.12,-1.6 -5.72,-1.6 h -4.35 z"
       style="fill:#ffffff"
       id="path307" />
    <path
       d="M 72.22,741.66 V 696.8 h 9.52 v 37 h 18.19 v 7.86 z"
       style="fill:#ffffff"
       id="path309" />
    <path
       d="M 166.62,741.66 163.36,731 H 147 l -3.26,10.68 h -10.23 l 15.83,-45 H 161 l 15.9,45 z M 161.09,723 q -4.5,-14.5 -5.08,-16.41 c -0.37,-1.27 -0.65,-2.28 -0.81,-3 q -1,3.93 -5.8,19.42 z"
       style="fill:#ffffff"
       id="path311" />
    <path
       d="m 231.24,741.66 h -9.51 v -36.95 h -12.18 v -7.91 h 33.88 v 7.91 h -12.19 z"
       style="fill:#ffffff"
       id="path313" />
    <path
       d="m 291.11,741.66 h -9.36 V 696.8 h 25.72 v 7.79 h -16.36 v 11.57 h 15.22 v 7.76 h -15.22 z"
       style="fill:#ffffff"
       id="path315" />
    <path
       d="m 388.39,719.17 q 0,11.13 -5.53,17.12 -5.53,5.99 -15.83,6 -10.3,0 -15.83,-6 -5.53,-6 -5.53,-17.18 0,-11.21 5.54,-17.11 5.54,-5.9 15.88,-5.91 10.35,0 15.82,5.95 5.47,5.95 5.48,17.13 z m -32.74,0 q 0,7.51 2.85,11.32 2.85,3.81 8.5,3.81 11.39,0 11.38,-15.13 -0.01,-15.13 -11.29,-15.17 -5.67,0 -8.56,3.82 c -1.92,2.56 -2.88,6.33 -2.88,11.35 z"
       style="fill:#ffffff"
       id="path317" />
    <path
       d="m 438.62,724.44 v 17.22 h -9.51 V 696.8 h 13.07 q 9.15,0 13.53,3.33 4.38,3.33 4.39,10.11 a 11.85,11.85 0 0 1 -2.18,7 14.35,14.35 0 0 1 -6.16,4.83 q 10.13,15.14 13.19,19.55 H 454.39 L 443.68,724.4 Z m 0,-7.73 h 3.07 q 4.51,0 6.66,-1.5 a 5.38,5.38 0 0 0 2.15,-4.73 4.89,4.89 0 0 0 -2.2,-4.54 c -1.46,-0.9 -3.73,-1.35 -6.79,-1.35 h -2.89 z"
       style="fill:#ffffff"
       id="path319" />
    <path
       d="m 521,741.66 -10.8,-35.2 h -0.27 q 0.58,10.74 0.58,14.33 v 20.87 H 502 V 696.8 h 13 l 10.62,34.3 h 0.18 L 537,696.8 h 13 v 44.86 h -8.86 v -21.23 c 0,-1 0,-2.16 0,-3.47 0,-1.31 0.17,-4.79 0.42,-10.44 h -0.28 l -11.57,35.14 z"
       style="fill:#ffffff"
       id="path321" />
  </g>
</svg>
