<?xml version="1.0"?>
<svg xmlns="http://www.w3.org/2000/svg" xmlns:xlink="http://www.w3.org/1999/xlink" xmlns:svgjs="http://svgjs.com/svgjs" version="1.1" width="512" height="512" x="0" y="0" viewBox="0 0 512.005 512.005" style="enable-background:new 0 0 512 512" xml:space="preserve" class=""><g><g xmlns="http://www.w3.org/2000/svg"><path d="m509.16 247.21c-53.07-73.37-154.42-156.21-253.16-156.21-97.9 0-199.22 81.64-253.16 156.21-3.79 5.25-3.79 12.33 0 17.58 53.07 73.37 154.42 156.21 253.16 156.21 97.9 0 199.22-81.64 253.16-156.21 3.79-5.25 3.79-12.33 0-17.58zm-253.16 113.79c-57.9 0-105-47.1-105-105s47.1-105 105-105 105 47.1 105 105-47.1 105-105 105z" fill="#ffffff" data-original="#000000" style="" class=""/><g><path d="m15.003 151.003c-8.284 0-15-6.716-15-15v-60c0-8.284 6.716-15 15-15h60c8.284 0 15 6.716 15 15s-6.716 15-15 15h-45v45c0 8.284-6.716 15-15 15z" fill="#ffffff" data-original="#000000" style="" class=""/></g><g><path d="m497.003 151.003c-8.284 0-15-6.716-15-15v-45h-45c-8.284 0-15-6.716-15-15s6.716-15 15-15h60c8.284 0 15 6.716 15 15v60c0 8.284-6.716 15-15 15z" fill="#ffffff" data-original="#000000" style="" class=""/></g><g><path d="m75.003 451.003h-60c-8.284 0-15-6.716-15-15v-60c0-8.284 6.716-15 15-15s15 6.716 15 15v45h45c8.284 0 15 6.716 15 15s-6.716 15-15 15z" fill="#ffffff" data-original="#000000" style="" class=""/></g><g><path d="m497.003 451.003h-60c-8.284 0-15-6.716-15-15s6.716-15 15-15h45v-45c0-8.284 6.716-15 15-15s15 6.716 15 15v60c0 8.284-6.716 15-15 15z" fill="#ffffff" data-original="#000000" style="" class=""/></g><path d="m256 181c-41.35 0-75 33.65-75 75s33.65 75 75 75 75-33.65 75-75-33.65-75-75-75zm0 120c-24.81 0-45-20.19-45-45s20.19-45 45-45 45 20.19 45 45-20.19 45-45 45z" fill="#ffffff" data-original="#000000" style="" class=""/><circle cx="256" cy="256" r="15" fill="#ffffff" data-original="#000000" style="" class=""/></g></g></svg>
