<svg width="24" height="24" viewBox="0 0 24 24" fill="none" xmlns="http://www.w3.org/2000/svg">
<path d="M11.1 17.4H12.9V15.6H11.1V17.4ZM12 3C7.032 3 3 7.032 3 12C3 16.968 7.032 21 12 21C16.968 21 21 16.968 21 12C21 7.032 16.968 3 12 3ZM12 19.2C8.031 19.2 4.8 15.969 4.8 12C4.8 8.031 8.031 4.8 12 4.8C15.969 4.8 19.2 8.031 19.2 12C19.2 15.969 15.969 19.2 12 19.2ZM12 6.6C10.011 6.6 8.4 8.211 8.4 10.2H10.2C10.2 9.21 11.01 8.4 12 8.4C12.99 8.4 13.8 9.21 13.8 10.2C13.8 12 11.1 11.775 11.1 14.7H12.9C12.9 12.675 15.6 12.45 15.6 10.2C15.6 8.211 13.989 6.6 12 6.6Z" fill="black"/>
</svg>
