<svg width="16" height="16" viewBox="0 0 16 16" fill="none" xmlns="http://www.w3.org/2000/svg">
<path d="M3.09997 14.79L1.40997 13.11" stroke="#00E9A8" stroke-miterlimit="10" stroke-linecap="square"/>
<path d="M5.72998 11.43L7.40998 13.11" stroke="#FF4775" stroke-miterlimit="10" stroke-linecap="square"/>
<path d="M7.40998 13.11L5.72998 14.79" stroke="#8061FE" stroke-miterlimit="10" stroke-linecap="square"/>
<path d="M1.40997 13.11L3.09997 11.43" stroke="#009AFF" stroke-miterlimit="10" stroke-linecap="square"/>
<path d="M11 2.17001H15V13.17H9V4.17001C9 3.63958 9.21071 3.13087 9.58579 2.7558C9.96086 2.38073 10.4696 2.17001 11 2.17001Z" stroke="#000000" stroke-linejoin="round"/>
<path d="M3 10V2.17001H6.91C7.18709 2.17263 7.46096 2.2298 7.71595 2.33826C7.97095 2.44672 8.20209 2.60434 8.39617 2.80213C8.59024 2.99992 8.74346 3.23401 8.84706 3.49101C8.95067 3.74802 9.00264 4.02292 9 4.30001V13.17" stroke="#000000" stroke-linejoin="round"/>
</svg>
